<svg width="41" height="29" viewBox="0 0 41 29" fill="none" xmlns="http://www.w3.org/2000/svg">
<path d="M26.2578 0C18.362 0 12.018 6.38739 12.018 14.1937C12.018 22.0645 18.4247 28.3875 26.2561 28.3875C34.0875 28.3875 40.5 22.0001 40.5 14.1937C40.5 6.38739 34.0892 0 26.2578 0ZM26.2578 19.4841C23.3454 19.4841 20.9515 17.0969 20.9515 14.1937C20.9515 11.2906 23.3454 8.90338 26.2578 8.90338C29.1701 8.90338 31.5648 11.2906 31.5648 14.1937C31.4996 17.0969 29.1701 19.4841 26.2578 19.4841ZM12.018 4.12392V24.7694H6.97268L0.5 4.12392H12.018Z" fill="white" fill-opacity="0.4"/>
</svg>
