<svg width="604" height="404" viewBox="0 0 604 404" fill="none" xmlns="http://www.w3.org/2000/svg">
<path d="M604 388.183C604 396.919 596.919 404 588.183 404H426.551C422.357 404 418.334 402.334 415.367 399.367L388.633 372.633C385.666 369.666 381.643 368 377.449 368H42.5515C38.3566 368 34.3336 366.334 31.3674 363.367L4.6326 336.633C1.66639 333.666 0 329.643 0 325.449V52.3167C0 43.5814 7.08137 36.5 15.8167 36.5H213.385C217.617 36.5 221.673 34.8035 224.645 31.79L251.355 4.71C254.327 1.69649 258.383 0 262.615 0H561.385C565.617 0 569.673 1.69649 572.645 4.71L599.444 31.881C602.363 34.8407 604 38.8306 604 42.9877V388.183Z" fill="white"/>
</svg>
