<svg width="33" height="29" viewBox="0 0 33 29" fill="none" xmlns="http://www.w3.org/2000/svg">
<path d="M32.9892 6.64829C32.9673 8.33499 32.544 9.93555 31.909 11.4859C30.6755 14.5076 28.9311 17.2278 26.9312 19.8045C25.7488 21.3261 24.4861 22.7831 23.0701 24.0966C21.3257 25.7187 19.4791 27.2188 17.2529 28.1805C16.5741 28.4748 15.8734 28.7117 15.129 28.8121C14.2531 28.9342 13.5086 28.7045 12.859 28.0944C11.7277 27.0322 11.0051 25.7043 10.3628 24.3334C9.18042 21.7926 8.32645 19.137 7.46519 16.4814C6.88128 14.6798 6.34847 12.8639 5.65508 11.1055C5.5383 10.8184 5.41422 10.5313 5.27554 10.2514C5.09307 9.89249 4.80111 9.77047 4.39968 9.8566C3.98365 9.94273 3.6479 10.1939 3.33405 10.4523C3.15158 10.603 2.9837 10.7825 2.80853 10.9476C2.3925 11.3495 2.00566 11.3495 1.61882 10.926C1.1371 10.4021 0.677272 9.86378 0.224744 9.31829C-0.0964044 8.93789 -0.0745078 8.57184 0.297733 8.20579C1.07141 7.44499 1.85238 6.69136 2.65526 5.95926C3.56761 5.12668 4.51646 4.31563 5.5091 3.56918C6.52364 2.80838 7.57467 2.08346 8.77168 1.6241C10.0636 1.12169 11.3628 1.0212 12.5744 1.82507C13.494 2.43515 14.0414 3.33233 14.4429 4.32999C15.056 5.8516 15.2166 7.45934 15.4574 9.05273C15.7129 10.7322 16.0194 12.4046 16.4063 14.0554C16.6033 14.9095 16.8661 15.7421 17.158 16.5675C17.2894 16.9335 17.4792 17.2637 17.6909 17.5867C17.9317 17.9527 18.1288 17.9671 18.4426 17.6728C20.2528 15.9933 21.4644 13.9477 22.2453 11.6366C22.384 11.2131 22.4862 10.7825 22.4643 10.3303C22.4278 9.66999 22.1067 9.29676 21.4498 9.16039C20.6469 8.99531 19.8732 9.18192 19.1068 9.36853C18.2748 9.5695 17.8368 9.1891 18.0777 8.38523C18.9025 5.59321 20.4279 3.29644 23.0628 1.8466C24.1649 1.23652 25.3765 0.956605 26.6538 0.863299C27.9019 0.77717 29.077 0.97096 30.1865 1.53798C31.5878 2.25572 32.4491 3.38975 32.7994 4.89701C32.9381 5.47838 33.033 6.05257 32.9892 6.64829Z" fill="white" fill-opacity="0.2"/>
</svg>
