<svg width="30" height="30" viewBox="0 0 30 30" fill="none" xmlns="http://www.w3.org/2000/svg">
<path d="M27.5827 27.618C21.6941 24.5187 15.8549 21.4477 10.0156 18.3837C10.0085 18.3978 9.99446 18.4119 9.98741 18.433C12.9528 21.4618 15.9183 24.4906 18.9541 27.5968C18.7358 27.6109 18.609 27.632 18.4892 27.632C16.996 27.632 15.5097 27.625 14.0164 27.6391C13.7629 27.6391 13.615 27.5405 13.4741 27.3433C11.537 24.6455 9.60001 21.9548 7.65593 19.2642C7.5714 19.1444 7.47279 19.0317 7.30374 18.8204C7.30374 19.0458 7.30374 19.1656 7.30374 19.2853C7.30374 21.9126 7.30374 24.5469 7.30374 27.1742C7.30374 27.632 7.30374 27.632 6.83885 27.632C5.72594 27.632 4.60598 27.632 3.49306 27.632C3.01409 27.632 3.00704 27.632 3.00704 27.146C3.00704 21.7717 3.00704 16.3974 3 11.016C3 8.50143 3 5.99389 3 3.4793C3 3.00737 3 3.00737 3.46489 3.00737C4.61302 3.00737 5.7682 3.01441 6.91633 3.00033C7.22626 2.99328 7.31078 3.09894 7.31078 3.40886C7.2967 6.05024 7.30374 8.69161 7.30374 11.333C7.30374 11.4598 7.30374 11.5866 7.30374 11.7133C7.33191 11.7274 7.35305 11.7415 7.38122 11.7556C7.5714 11.502 7.76158 11.2485 7.95177 10.9949C9.81132 8.41691 11.6638 5.83188 13.5304 3.26094C13.615 3.14824 13.784 3.0285 13.9178 3.0285C15.5027 3.01441 17.0875 3.02146 18.6724 3.02146C18.7287 3.02146 18.7851 3.04259 18.94 3.06372C15.8478 6.24042 12.812 9.36781 9.76906 12.4882C9.78314 12.5022 9.79019 12.5234 9.80428 12.5375C15.707 9.36781 21.6167 6.2052 27.5827 3.01441C27.6039 3.17642 27.625 3.28912 27.625 3.40182C27.625 4.69081 27.618 5.98684 27.632 7.27584C27.632 7.52941 27.5405 7.64915 27.3151 7.74072C24.7441 8.76205 22.1731 9.79043 19.6022 10.8188C17.01 11.8613 14.425 12.9037 11.8329 13.9462C11.8117 13.9532 11.7977 13.9744 11.7343 14.0307C12.2062 14.0025 12.6288 13.9814 13.0515 13.9532C16.6719 13.7208 20.2854 13.4884 23.9059 13.2489C25.0329 13.1784 26.1529 13.108 27.2799 13.0235C27.5334 13.0023 27.6391 13.0516 27.6391 13.3334C27.632 14.6506 27.632 15.9607 27.6391 17.2778C27.6391 17.5314 27.5475 17.6019 27.301 17.5878C24.8427 17.4187 22.3844 17.2567 19.9262 17.0947C18.137 16.975 16.3409 16.8552 14.5518 16.7355C13.629 16.6721 12.7063 16.6157 11.7554 16.6369C12.2344 16.8341 12.7134 17.0313 13.1923 17.2285C16.7706 18.6655 20.3558 20.1024 23.9341 21.5393C25.0681 21.9901 26.1951 22.4479 27.3292 22.8987C27.5053 22.9691 27.632 23.0396 27.632 23.265C27.625 24.6385 27.625 26.012 27.625 27.3855C27.618 27.4419 27.6039 27.4912 27.5827 27.618Z" fill="white" fill-opacity="0.4"/>
</svg>
