<svg width="40" height="40" viewBox="0 0 40 40" fill="none" xmlns="http://www.w3.org/2000/svg">
<path d="M37.4115 37.4661C29.2607 33.1763 21.1781 28.9254 13.0956 24.6843C13.0858 24.7038 13.0663 24.7233 13.0566 24.7526C17.1612 28.9449 21.2659 33.1373 25.468 37.4369C25.1658 37.4564 24.9903 37.4856 24.8246 37.4856C22.7576 37.4856 20.7004 37.4759 18.6334 37.4954C18.2824 37.4954 18.0777 37.3589 17.8827 37.0859C15.2015 33.3518 12.5203 29.6274 9.82938 25.903C9.71238 25.7373 9.57588 25.5813 9.34189 25.2888C9.34189 25.6008 9.34189 25.7665 9.34189 25.9323C9.34189 29.5689 9.34189 33.2153 9.34189 36.8519C9.34189 37.4856 9.34189 37.4856 8.6984 37.4856C7.15793 37.4856 5.60772 37.4856 4.06725 37.4856C3.40427 37.4856 3.39452 37.4856 3.39452 36.8129C3.39452 29.3739 3.39452 21.9349 3.38477 14.4862C3.38477 11.0056 3.38477 7.53468 3.38477 4.05406C3.38477 3.40083 3.38477 3.40083 4.02825 3.40083C5.61747 3.40083 7.21643 3.41058 8.80565 3.39108C9.23464 3.38133 9.35164 3.52757 9.35164 3.95656C9.33214 7.61268 9.34189 11.2688 9.34189 14.9249C9.34189 15.1004 9.34189 15.2759 9.34189 15.4514C9.38089 15.4709 9.41014 15.4904 9.44914 15.5099C9.71238 15.1589 9.97562 14.8079 10.2389 14.4569C12.8128 10.8886 15.377 7.31044 17.9607 3.75182C18.0777 3.59582 18.3117 3.43008 18.4969 3.43008C20.6906 3.41058 22.8843 3.42033 25.0781 3.42033C25.156 3.42033 25.234 3.44958 25.4485 3.47883C21.1684 7.87592 16.9662 12.2048 12.7543 16.5239C12.7738 16.5434 12.7836 16.5726 12.8031 16.5921C20.9734 12.2048 29.1535 7.82717 37.4115 3.41058C37.4408 3.63482 37.47 3.79081 37.47 3.94681C37.47 5.731 37.4603 7.52493 37.4798 9.30912C37.4798 9.66011 37.353 9.82585 37.041 9.9526C33.4824 11.3663 29.9237 12.7898 26.365 14.2132C22.7771 15.6562 19.1989 17.0991 15.611 18.5421C15.5818 18.5518 15.5623 18.581 15.4745 18.659C16.1277 18.62 16.7127 18.5908 17.2977 18.5518C22.3091 18.2301 27.3108 17.9083 32.3221 17.5768C33.8821 17.4793 35.4323 17.3818 36.9923 17.2648C37.3433 17.2356 37.4895 17.3038 37.4895 17.6938C37.4798 19.517 37.4798 21.3305 37.4895 23.1536C37.4895 23.5046 37.3628 23.6021 37.0215 23.5826C33.6189 23.3486 30.2162 23.1244 26.8135 22.9001C24.3371 22.7344 21.8509 22.5687 19.3744 22.4029C18.0972 22.3152 16.82 22.2372 15.5038 22.2664C16.1667 22.5394 16.8297 22.8124 17.4927 23.0854C22.4456 25.0743 27.4083 27.0633 32.3611 29.0522C33.9309 29.6762 35.4908 30.3099 37.0605 30.9339C37.3043 31.0314 37.4798 31.1289 37.4798 31.4409C37.47 33.342 37.47 35.2432 37.47 37.1444C37.4603 37.2224 37.4408 37.2907 37.4115 37.4661Z" fill="white" fill-opacity="0.2"/>
</svg>
