<svg width="30" height="30" viewBox="0 0 30 30" fill="none" xmlns="http://www.w3.org/2000/svg">
<path d="M14.9788 7.36442C13.5372 7.36395 12.1096 7.64348 10.7777 8.18704C9.44568 8.73061 8.23535 9.52757 7.21583 10.5324C6.19631 11.5372 5.38757 12.7302 4.83579 14.0433C4.28401 15.3563 4 16.7636 4 18.1849C4 21.0547 5.1563 23.8069 7.21452 25.8362C9.27275 27.8654 12.0643 29.0054 14.9751 29.0054C17.8859 29.0054 20.6774 27.8654 22.7356 25.8362C24.7939 23.8069 25.9502 21.0547 25.9502 18.1849C25.9502 15.3158 24.7944 12.5641 22.7369 10.535C20.6795 8.50583 17.8889 7.36539 14.9788 7.36442ZM14.9788 24.1967C13.3616 24.1967 11.8106 23.5633 10.6671 22.4359C9.52353 21.3085 8.88109 19.7793 8.88109 18.1849C8.8806 17.3953 9.03799 16.6133 9.34426 15.8837C9.65052 15.1541 10.0997 14.4912 10.666 13.9329C11.2323 13.3745 11.9047 12.9317 12.6447 12.6298C13.3847 12.3278 14.1779 12.1727 14.9788 12.1731C15.7795 12.1731 16.5724 12.3286 17.3122 12.6307C18.052 12.9329 18.7243 13.3757 19.2905 13.9339C19.8567 14.4922 20.3059 15.1549 20.6123 15.8843C20.9187 16.6137 21.0765 17.3954 21.0765 18.1849C21.0755 19.779 20.4327 21.3076 19.2894 22.4348C18.1461 23.562 16.5957 24.1957 14.9788 24.1967Z" fill="white" fill-opacity="0.4"/>
<path d="M17.4783 3.54429C17.4881 4.20821 17.2306 4.8489 16.762 5.32585C16.2934 5.8028 15.6521 6.0771 14.9788 6.08857C14.3047 6.07805 13.6625 5.80417 13.1931 5.32711C12.7238 4.85006 12.4657 4.20883 12.4755 3.54429C12.4702 3.2151 12.5307 2.8881 12.6536 2.582C12.7766 2.27591 12.9595 1.99672 13.192 1.7604C13.4245 1.52409 13.702 1.33528 14.0086 1.20481C14.3152 1.07433 14.6449 1.00474 14.9788 1C15.3123 1.00521 15.6416 1.07515 15.9478 1.20584C16.2539 1.33653 16.531 1.5254 16.7631 1.76167C16.9952 1.99794 17.1778 2.27697 17.3005 2.58284C17.4233 2.8887 17.4836 3.21541 17.4783 3.54429ZM24.0147 3.54429C24.0245 4.20821 23.7669 4.8489 23.2984 5.32585C22.8298 5.8028 22.1885 6.0771 21.5151 6.08857C20.8411 6.07805 20.1989 5.80417 19.7295 5.32711C19.2602 4.85006 19.0021 4.20883 19.0119 3.54429C19.0065 3.2151 19.0671 2.8881 19.19 2.582C19.313 2.27591 19.4959 1.99672 19.7284 1.7604C19.9609 1.52409 20.2384 1.33528 20.545 1.20481C20.8516 1.07433 21.1812 1.00474 21.5151 1C21.8487 1.00521 22.178 1.07515 22.4842 1.20584C22.7903 1.33653 23.0674 1.5254 23.2995 1.76167C23.5316 1.99794 23.7142 2.27697 23.8369 2.58284C23.9596 2.8887 24.02 3.21541 24.0147 3.54429ZM8.43867 6.08857C7.76528 6.0771 7.12399 5.8028 6.65543 5.32585C6.18687 4.8489 5.92928 4.20821 5.93914 3.54429C5.93378 3.21541 5.99417 2.8887 6.11688 2.58284C6.2396 2.27697 6.42224 1.99794 6.65435 1.76167C6.88646 1.5254 7.16351 1.33653 7.46967 1.20584C7.77582 1.07515 8.10508 1.00521 8.43867 1C8.77256 1.00474 9.10223 1.07433 9.40881 1.20481C9.7154 1.33528 9.99289 1.52409 10.2254 1.7604C10.4579 1.99672 10.6409 2.27591 10.7638 2.582C10.8867 2.8881 10.9473 3.2151 10.9419 3.54429C10.9518 4.20883 10.6936 4.85006 10.2243 5.32711C9.75493 5.80417 9.11269 6.07805 8.43867 6.08857Z" fill="white" fill-opacity="0.4"/>
</svg>
