<svg width="41" height="40" viewBox="0 0 41 40" fill="none" xmlns="http://www.w3.org/2000/svg">
<path d="M20.5696 9.43056C18.5742 9.4299 16.5982 9.81682 14.7545 10.5692C12.9108 11.3216 11.2355 12.4247 9.82431 13.8156C8.41312 15.2064 7.29369 16.8577 6.52993 18.6752C5.76617 20.4927 5.37305 22.4407 5.37305 24.408C5.37305 28.3803 6.97356 32.1898 9.82251 34.9986C12.6715 37.8074 16.5355 39.3854 20.5645 39.3854C24.5935 39.3854 28.4575 37.8074 31.3064 34.9986C34.1554 32.1898 35.7559 28.3803 35.7559 24.408C35.7559 20.4366 34.1561 16.6278 31.3082 13.8191C28.4604 11.0105 24.5977 9.43189 20.5696 9.43056ZM20.5696 32.7294C18.3311 32.7294 16.1843 31.8526 14.6014 30.2921C13.0186 28.7315 12.1293 26.615 12.1293 24.408C12.1286 23.315 12.3465 22.2327 12.7704 21.2228C13.1944 20.2129 13.816 19.2953 14.5999 18.5224C15.3838 17.7496 16.3145 17.1367 17.3388 16.7187C18.3632 16.3008 19.461 16.086 20.5696 16.0866C21.678 16.0866 22.7755 16.3019 23.7995 16.7201C24.8235 17.1383 25.754 17.7512 26.5377 18.5239C27.3215 19.2966 27.9432 20.214 28.3673 21.2235C28.7915 22.2331 29.0098 23.3152 29.0098 24.408C29.0085 26.6145 28.1188 28.7303 26.5362 30.2906C24.9537 31.8509 22.8077 32.728 20.5696 32.7294Z" fill="white" fill-opacity="0.2"/>
<path d="M24.0293 4.14283C24.043 5.06182 23.6864 5.94863 23.0379 6.60882C22.3893 7.26901 21.5016 7.64867 20.5696 7.66456C19.6366 7.64999 18.7476 7.2709 18.0979 6.61057C17.4483 5.95024 17.091 5.06267 17.1046 4.14283C17.0972 3.68718 17.181 3.23455 17.3512 2.81086C17.5213 2.38717 17.7746 2.00073 18.0964 1.67362C18.4182 1.34652 18.8023 1.08519 19.2267 0.904581C19.651 0.723977 20.1074 0.627649 20.5696 0.621094C21.0313 0.628304 21.487 0.725113 21.9108 0.906009C22.3346 1.08691 22.7181 1.34834 23.0394 1.67538C23.3606 2.00241 23.6134 2.38864 23.7833 2.81201C23.9532 3.23538 24.0368 3.6876 24.0293 4.14283ZM33.0768 4.14283C33.0905 5.06182 32.7339 5.94863 32.0853 6.60882C31.4368 7.26901 30.5491 7.64867 29.617 7.66456C28.6841 7.64999 27.7951 7.2709 27.1454 6.61057C26.4958 5.95024 26.1385 5.06267 26.1521 4.14283C26.1447 3.68718 26.2285 3.23455 26.3987 2.81086C26.5688 2.38717 26.8221 2.00073 27.1439 1.67362C27.4657 1.34652 27.8498 1.08519 28.2742 0.904581C28.6986 0.723977 29.1549 0.627649 29.617 0.621094C30.0788 0.628304 30.5345 0.725113 30.9583 0.906009C31.3821 1.08691 31.7656 1.34834 32.0869 1.67538C32.4081 2.00241 32.6609 2.38864 32.8308 2.81201C33.0006 3.23538 33.0843 3.6876 33.0768 4.14283ZM11.5169 7.66456C10.5848 7.64867 9.6972 7.26901 9.04862 6.60882C8.40005 5.94863 8.04351 5.06182 8.05716 4.14283C8.04973 3.6876 8.13332 3.23538 8.30318 2.81201C8.47304 2.38864 8.72585 2.00241 9.04713 1.67538C9.36841 1.34834 9.75189 1.08691 10.1757 0.906009C10.5994 0.725113 11.0552 0.628304 11.5169 0.621094C11.9791 0.627649 12.4354 0.723977 12.8598 0.904581C13.2841 1.08519 13.6682 1.34652 13.9901 1.67362C14.3119 2.00073 14.5651 2.38717 14.7353 2.81086C14.9055 3.23455 14.9893 3.68718 14.9818 4.14283C14.9955 5.06267 14.6382 5.95024 13.9885 6.61057C13.3389 7.2709 12.4499 7.64999 11.5169 7.66456Z" fill="white" fill-opacity="0.2"/>
</svg>
