<svg width="53" height="40" viewBox="0 0 53 40" fill="none" xmlns="http://www.w3.org/2000/svg">
<path fill-rule="evenodd" clip-rule="evenodd" d="M47.2311 2.62299C48.6815 2.28785 50.132 1.89686 51.5824 1.50586C52.3076 3.5167 52.8655 5.86269 51.7497 7.87353C50.3551 10.6105 47.1195 11.6718 44.2187 11.8394C39.6443 12.1186 35.1257 11.1132 30.607 10.4429C30.5512 17.1457 30.6628 23.7927 30.5512 30.4955C30.5512 33.1208 28.9892 35.746 26.4789 36.7515C23.857 37.7569 20.6214 37.5893 18.39 35.746C16.8838 34.5172 16.2701 32.5622 15.7681 30.7748C17.3301 30.3838 18.8921 30.0487 20.4541 29.6577C21.1235 30.5514 21.7371 32.1712 23.1318 31.8919C24.3033 31.7802 24.5822 30.4397 24.5822 29.4901C24.638 22.8431 24.5264 16.1962 24.638 9.54923C21.1793 8.87895 17.7206 8.4321 14.2619 8.09696C12.3651 7.98524 10.3011 7.76182 8.57173 8.71138C7.23288 9.49337 7.28866 11.2249 7.12131 12.5655C5.50353 12.5655 3.94153 12.5655 2.32375 12.5096C1.98904 10.4429 1.59854 8.15281 2.82582 6.3654C4.77832 3.06985 9.01802 2.51128 12.4767 2.51128C21.4582 3.06985 30.2723 5.1924 39.198 6.25368C41.5968 6.47711 44.1071 6.86811 46.4501 5.9744C47.789 5.30412 47.3985 3.74013 47.2311 2.62299Z" fill="white" fill-opacity="0.2"/>
</svg>
