<svg width="38" height="28" viewBox="0 0 38 28" fill="none" xmlns="http://www.w3.org/2000/svg">
<path fill-rule="evenodd" clip-rule="evenodd" d="M33.8323 1.44575C34.8802 1.20363 35.928 0.921149 36.9759 0.638672C37.4998 2.09141 37.9028 3.78627 37.0968 5.23901C36.0892 7.21635 33.7517 7.98308 31.656 8.10414C28.3512 8.30591 25.0867 7.57954 21.8222 7.09529C21.7819 11.9378 21.8625 16.7399 21.7819 21.5823C21.7819 23.479 20.6534 25.3756 18.8398 26.102C16.9456 26.8283 14.608 26.7073 12.9959 25.3756C11.9078 24.4878 11.4645 23.0754 11.1017 21.7841C12.2302 21.5016 13.3587 21.2595 14.4871 20.977C14.9708 21.6227 15.4141 22.7929 16.4217 22.5912C17.268 22.5105 17.4695 21.542 17.4695 20.856C17.5098 16.0538 17.4292 11.2517 17.5098 6.44963C15.0111 5.96538 12.5123 5.64255 10.0136 5.40043C8.64328 5.31972 7.15209 5.1583 5.90272 5.84432C4.93546 6.40927 4.97576 7.66024 4.85485 8.62874C3.68608 8.62874 2.55762 8.62874 1.38885 8.58838C1.14703 7.09529 0.864914 5.44078 1.75157 4.14946C3.16215 1.76858 6.22514 1.36504 8.72389 1.36504C15.2126 1.76858 21.5804 3.30203 28.0287 4.06875C29.7618 4.23017 31.5754 4.51264 33.2681 3.86698C34.2353 3.38273 33.9532 2.25283 33.8323 1.44575Z" fill="white" fill-opacity="0.4"/>
</svg>
