<svg width="1345" height="109" viewBox="0 0 1345 109" fill="none" xmlns="http://www.w3.org/2000/svg">
<path d="M816 108.675H516.627C504.799 108.675 493.577 103.44 485.977 94.3768L445.662 46.3005C438.062 37.2372 426.84 32.0023 415.012 32.0023H79.4737C60.0712 32.0023 43.4665 18.078 40.0856 -1.02765L39.388 -4.96977C36.0071 -24.0754 19.4025 -48 0 -48H1344.87C1326.3 -48 1310.18 -35.2288 1305.93 -17.1589L1301.62 1.16116C1297.37 19.2311 1281.24 32.0023 1262.68 32.0023H918.607C906.945 32.0023 895.864 37.0915 888.265 45.9375L846.342 94.7399C838.743 103.586 827.662 108.675 816 108.675Z" fill="#111111"/>
</svg>
