<svg width="125" height="64" viewBox="0 0 125 64" fill="none" xmlns="http://www.w3.org/2000/svg">
<path fill-rule="evenodd" clip-rule="evenodd" d="M1.0332 7.3999H55.9872V49.9999H1.0332V7.3999ZM2.0332 48.9999V8.3999H54.9872V48.9999H2.0332ZM13.5892 37.4439H43.3732V34.1659H13.5892V37.4439ZM13.5892 21.5519H43.3732V20.0139H13.5892V21.5519ZM44.3732 38.4439V33.1659H12.5892V38.4439H44.3732ZM44.3732 22.5519V19.0139H12.5892V22.5519H44.3732Z" fill="white" fill-opacity="0.4"/>
<path fill-rule="evenodd" clip-rule="evenodd" d="M108.751 7.3999H121.307V49.9999H108.751V39.4439H62.4614L73.7201 7.3999H87.3252L80.4812 26.8299H108.751V7.3999ZM79.0687 27.8299L85.9127 8.3999H74.4287L63.8727 38.4439H109.751V48.9999H120.307V8.3999H109.751V27.8299H79.0687Z" fill="white" fill-opacity="0.4"/>
<path fill-rule="evenodd" clip-rule="evenodd" d="M74.9041 50.4548H62.3481V41.455H74.9041V50.4548ZM73.9041 42.455V49.4548H63.3481V42.455H73.9041Z" fill="white" fill-opacity="0.4"/>
</svg>
