<svg width="368" height="43" viewBox="0 0 368 43" fill="none" xmlns="http://www.w3.org/2000/svg">
<path d="M1.00488 0.900391H0.504883V1.40039V42.0004V42.5004H1.00488H11.5609H12.0609V42.0004V31.9444H42.4749C50.9883 31.9444 57.9389 24.9913 57.9389 16.4224C57.9389 7.91277 50.9895 0.900391 42.4749 0.900391H1.00488ZM100.847 1.23642L100.73 0.900391H100.375H68.5906H68.2349L68.1182 1.23642L54.0242 41.8364L53.7937 42.5004H54.4966H65.9226H66.2767L66.3942 42.1663L69.9887 31.9444H98.9745L102.512 42.1639L102.629 42.5004H102.985H114.469H115.171L114.941 41.8364L100.847 1.23642ZM163.215 15.0524H131.061V12.5144H172.959H173.459V12.0144V1.40039V0.900391H172.959H120.005H119.505V1.40039V42.0004V42.5004H120.005H163.215C170.799 42.5004 176.939 36.3605 176.939 28.7764C176.939 21.1923 170.799 15.0524 163.215 15.0524ZM255.033 0.900391H254.533V1.40039V12.0144V12.5144H255.033H275.703V42.0004V42.5004H276.203H286.759H287.259V42.0004V12.5144H307.987H308.487V12.0144V1.40039V0.900391H307.987H255.033ZM341.323 42.5004C347.959 42.5004 353.626 38.3317 355.845 32.4968V42.0004V42.5004H356.345H366.959H367.459V42.0004V1.40039V0.900391H366.959H356.345H355.845V1.40039V21.545C353.626 15.6837 347.96 11.5144 341.323 11.5144H325.061V1.40039V0.900391H324.561H314.005H313.505V1.40039V42.0004V42.5004H314.005H341.323ZM42.4749 20.3304H12.0609V12.5144H42.4749C44.6347 12.5144 46.3829 14.2625 46.3829 16.4224C46.3829 18.5823 44.6347 20.3304 42.4749 20.3304ZM92.1894 12.5144L94.9147 20.3304H73.9924L76.7177 12.5144H92.1894ZM163.215 30.9444H131.061V26.6664H163.215C164.403 26.6664 165.383 27.6167 165.383 28.7764C165.383 29.9503 164.389 30.9444 163.215 30.9444ZM231.958 0.900391H201.972C190.501 0.900391 181.172 10.2892 181.172 21.7004C181.172 33.1705 190.502 42.5004 201.972 42.5004H231.958C243.428 42.5004 252.758 33.1705 252.758 21.7004C252.758 10.2892 243.429 0.900391 231.958 0.900391ZM231.958 30.9444H201.972C196.854 30.9444 192.728 26.8183 192.728 21.7004C192.728 16.6425 196.853 12.5144 201.972 12.5144H231.958C237.018 12.5144 241.144 16.6405 241.144 21.7004C241.144 26.8202 237.016 30.9444 231.958 30.9444ZM341.323 30.9444H325.061V23.1284H341.323C343.483 23.1284 345.231 24.8765 345.231 27.0364C345.231 29.1962 343.483 30.9444 341.323 30.9444Z" stroke="white" stroke-opacity="0.2"/>
</svg>
