<svg width="442" height="64" viewBox="0 0 442 64" fill="none" xmlns="http://www.w3.org/2000/svg">
<path fill-rule="evenodd" clip-rule="evenodd" d="M1.0332 7.40039H55.9872V50.0004H43.3732V20.0144H13.5892V50.0004H1.0332V7.40039ZM12.5892 49.0004H2.0332V8.40039H54.9872V49.0004H44.3732V19.0144H12.5892V49.0004Z" fill="white" fill-opacity="0.4"/>
<path fill-rule="evenodd" clip-rule="evenodd" d="M61.0049 7.40039H103.475C112.268 7.40039 119.439 14.6391 119.439 23.4224C119.439 32.2662 112.266 39.4444 103.475 39.4444H73.5609V50.0004H61.0049V7.40039ZM72.5609 49.0004H62.0049V8.40039H103.475C111.711 8.40039 118.439 15.1864 118.439 23.4224C118.439 31.7164 111.711 38.4444 103.475 38.4444H72.5609V49.0004ZM73.5609 26.8304H103.475C105.359 26.8304 106.883 25.3061 106.883 23.4224C106.883 21.5387 105.359 20.0144 103.475 20.0144H73.5609V26.8304ZM103.475 27.8304C105.911 27.8304 107.883 25.8584 107.883 23.4224C107.883 20.9864 105.911 19.0144 103.475 19.0144H72.5609V27.8304H103.475Z" fill="white" fill-opacity="0.4"/>
<path fill-rule="evenodd" clip-rule="evenodd" d="M143.972 7.40039H173.958C185.706 7.40039 195.258 17.014 195.258 28.7004C195.258 40.4467 185.704 50.0004 173.958 50.0004H143.972C132.226 50.0004 122.672 40.4467 122.672 28.7004C122.672 17.014 132.224 7.40039 143.972 7.40039ZM143.972 37.4444H173.958C178.738 37.4444 182.644 33.546 182.644 28.7004C182.644 23.9167 178.742 20.0144 173.958 20.0144H143.972C139.126 20.0144 135.228 23.9206 135.228 28.7004C135.228 33.5421 139.13 37.4444 143.972 37.4444ZM143.972 8.40039H173.958C185.152 8.40039 194.258 17.5644 194.258 28.7004C194.258 39.8944 185.152 49.0004 173.958 49.0004H143.972C132.778 49.0004 123.672 39.8944 123.672 28.7004C123.672 17.5644 132.778 8.40039 143.972 8.40039ZM143.972 38.4444H173.958C179.294 38.4444 183.644 34.0944 183.644 28.7004C183.644 23.3644 179.294 19.0144 173.958 19.0144H143.972C138.578 19.0144 134.228 23.3644 134.228 28.7004C134.228 34.0944 138.578 38.4444 143.972 38.4444Z" fill="white" fill-opacity="0.4"/>
<path fill-rule="evenodd" clip-rule="evenodd" d="M254.987 20.0144H212.589V21.5524H254.987V34.1664H212.589V37.4444H254.987V50.0004H200.033V7.40039H254.987V20.0144ZM253.987 38.4444V49.0004H201.033V8.40039H253.987V19.0144H211.589V22.5524H253.987V33.1664H211.589V38.4444H253.987Z" fill="white" fill-opacity="0.4"/>
<path fill-rule="evenodd" clip-rule="evenodd" d="M319.842 7.40039L312.479 28.7004L319.842 50.0004H306.302L300.792 34.1664H273.561V50.0004H261.005V7.40039H273.561V21.5524H301.372L306.302 7.40039H319.842ZM302.083 22.5524H272.561V8.40039H262.005V49.0004H272.561V33.1664H301.503L307.013 49.0004H318.439L311.421 28.7004L318.439 8.40039H307.013L302.083 22.5524Z" fill="white" fill-opacity="0.4"/>
<path fill-rule="evenodd" clip-rule="evenodd" d="M324.033 7.40039H378.987V20.0144H357.759V50.0004H345.203V20.0144H324.033V7.40039ZM325.033 19.0144V8.40039H377.987V19.0144H356.759V49.0004H346.203V19.0144H325.033Z" fill="white" fill-opacity="0.4"/>
<path fill-rule="evenodd" clip-rule="evenodd" d="M385.005 49.0004V8.40039H395.561V19.0144H412.323C418.714 19.0144 424.175 23.0095 426.345 28.6376C426.991 30.3132 427.345 32.1336 427.345 34.0364C427.345 35.9259 426.991 37.736 426.345 39.4037C424.175 45.0053 418.714 49.0004 412.323 49.0004H385.005ZM426.345 41.7527C423.611 46.6636 418.354 50.0004 412.323 50.0004H384.005V7.40039H396.561V18.0144H412.323C418.356 18.0144 423.612 21.3519 426.345 26.2807V7.40039H438.959V50.0004H426.345V41.7527ZM427.345 34.0364V8.40039H437.959V49.0004H427.345V34.0364ZM396.561 37.4444H412.323C414.206 37.4444 415.731 35.9201 415.731 34.0364C415.731 32.1527 414.206 30.6284 412.323 30.6284H396.561V37.4444ZM412.323 38.4444C414.759 38.4444 416.731 36.4724 416.731 34.0364C416.731 31.6004 414.759 29.6284 412.323 29.6284H395.561V38.4444H412.323Z" fill="white" fill-opacity="0.4"/>
</svg>
