<svg width="442" height="64" viewBox="0 0 442 64" fill="none" xmlns="http://www.w3.org/2000/svg">
<path d="M2.0332 7.65039L1.2832 8.40039V49.0004L2.0332 49.7504H12.5892L13.3392 49.0004V19.7644H43.6232V49.0004L44.3732 49.7504H54.9872L55.7372 49.0004V8.40039L54.9872 7.65039H2.0332ZM60.9872 7.65039L60.2372 8.40039V49.0004L60.9872 49.7504H71.5432L72.2932 49.0004V39.1944H102.457C111.109 39.1944 118.171 32.1287 118.171 23.4224C118.171 14.776 111.111 7.65039 102.457 7.65039H60.9872ZM252.961 19.7644L253.711 19.0144V8.40039L252.961 7.65039H200.007L199.257 8.40039V49.0004L200.007 49.7504H252.961L253.711 49.0004V38.4444L252.961 37.6944H211.313V33.9164H252.961L253.711 33.1664V22.5524L252.961 21.8024H211.313V19.7644H252.961ZM316.104 8.64544L315.395 7.65039H303.969L303.261 8.15366L298.506 21.8024H270.267V8.40039L269.517 7.65039H258.961L258.211 8.40039V49.0004L258.961 49.7504H269.517L270.267 49.0004V33.9164H297.926L303.261 49.2469L303.969 49.7504H315.395L316.104 48.7553L309.171 28.7004L316.104 8.64544ZM321.395 7.65039L320.645 8.40039V19.0144L321.395 19.7644H341.815V49.0004L342.565 49.7504H353.121L353.871 49.0004V19.7644H374.349L375.099 19.0144V8.40039L374.349 7.65039H321.395ZM407.667 18.2644H391.655V8.40039L390.905 7.65039H380.349L379.599 8.40039V49.0004L380.349 49.7504H407.667C416.374 49.7504 423.439 42.6885 423.439 34.0364C423.439 25.3282 416.375 18.2644 407.667 18.2644ZM428.126 7.8584L427.376 8.6084V49L428.126 49.75H438.747L439.497 49V8.6084L438.747 7.8584H428.126ZM102.457 27.0804H72.2932V19.7644H102.457C104.479 19.7644 106.115 21.4006 106.115 23.4224C106.115 25.4442 104.479 27.0804 102.457 27.0804ZM173.707 7.65039H143.721C132.112 7.65039 122.671 17.1516 122.671 28.7004C122.671 40.3086 132.113 49.7504 143.721 49.7504H173.707C185.315 49.7504 194.757 40.3086 194.757 28.7004C194.757 17.1516 185.317 7.65039 173.707 7.65039ZM173.707 37.6944H143.721C138.741 37.6944 134.727 33.6802 134.727 28.7004C134.727 23.7815 138.739 19.7644 143.721 19.7644H173.707C178.629 19.7644 182.643 23.7786 182.643 28.7004C182.643 33.6831 178.626 37.6944 173.707 37.6944ZM407.667 37.6944H391.655V30.3784H407.667C409.689 30.3784 411.325 32.0146 411.325 34.0364C411.325 36.0582 409.689 37.6944 407.667 37.6944Z" stroke="white" stroke-opacity="0.2" stroke-width="1.5" stroke-linejoin="bevel"/>
</svg>
