<svg width="432" height="64" viewBox="0 0 432 64" fill="none" xmlns="http://www.w3.org/2000/svg">
<path d="M2.03297 8.4V6.9L0.532969 8.4H2.03297ZM2.03297 49H0.532969L2.03297 50.5V49ZM12.589 49V50.5L14.089 49H12.589ZM12.589 19.014V17.514L11.089 19.014H12.589ZM44.373 19.014H45.873L44.373 17.514V19.014ZM44.373 49H42.873L44.373 50.5V49ZM54.987 49V50.5L56.487 49H54.987ZM54.987 8.4H56.487L54.987 6.9V8.4ZM0.532969 8.4V49H3.53297V8.4H0.532969ZM2.03297 50.5H12.589V47.5H2.03297V50.5ZM14.089 49V19.014H11.089V49H14.089ZM12.589 20.514H44.373V17.514H12.589V20.514ZM42.873 19.014V49H45.873V19.014H42.873ZM44.373 50.5H54.987V47.5H44.373V50.5ZM56.487 49V8.4H53.487V49H56.487ZM54.987 6.9H2.03297V9.9H54.987V6.9Z" fill="white" fill-opacity="0.2"/>
<path d="M61.0046 8.4V6.9L59.5046 8.4H61.0046ZM61.0046 49H59.5046L61.0046 50.5V49ZM71.5606 49V50.5L73.0606 49H71.5606ZM71.5606 38.444V36.944L70.0606 38.444H71.5606ZM71.5606 27.83H70.0606L71.5606 29.33V27.83ZM71.5606 19.014V17.514L70.0606 19.014H71.5606ZM102.475 6.9H61.0046V9.9H102.475V6.9ZM59.5046 8.4V49H62.5046V8.4H59.5046ZM61.0046 50.5H71.5606V47.5H61.0046V50.5ZM73.0606 49V38.444H70.0606V49H73.0606ZM71.5606 39.944H102.475V36.944H71.5606V39.944ZM102.475 39.944C111.543 39.944 118.939 32.5406 118.939 23.422H115.939C115.939 30.8914 109.878 36.944 102.475 36.944V39.944ZM118.939 23.422C118.939 14.3651 111.547 6.9 102.475 6.9V9.9C109.875 9.9 115.939 16.0069 115.939 23.422H118.939ZM102.475 26.33H71.5606V29.33H102.475V26.33ZM73.0606 27.83V19.014H70.0606V27.83H73.0606ZM71.5606 20.514H102.475V17.514H71.5606V20.514ZM102.475 20.514C104.082 20.514 105.383 21.8144 105.383 23.422H108.383C108.383 20.1576 105.739 17.514 102.475 17.514V20.514ZM105.383 23.422C105.383 25.0296 104.082 26.33 102.475 26.33V29.33C105.739 29.33 108.383 26.6864 108.383 23.422H105.383Z" fill="white" fill-opacity="0.2"/>
<path d="M172.958 6.9H142.972V9.9H172.958V6.9ZM142.972 6.9C130.947 6.9 121.172 16.7384 121.172 28.7H124.172C124.172 18.3896 132.609 9.9 142.972 9.9V6.9ZM121.172 28.7C121.172 40.7224 130.95 50.5 142.972 50.5V47.5C132.607 47.5 124.172 39.0656 124.172 28.7H121.172ZM142.972 50.5H172.958V47.5H142.972V50.5ZM172.958 50.5C184.981 50.5 194.758 40.7224 194.758 28.7H191.758C191.758 39.0656 183.324 47.5 172.958 47.5V50.5ZM194.758 28.7C194.758 16.7384 184.983 6.9 172.958 6.9V9.9C183.321 9.9 191.758 18.3896 191.758 28.7H194.758ZM172.958 36.944H142.972V39.944H172.958V36.944ZM142.972 36.944C138.407 36.944 134.728 33.2656 134.728 28.7H131.728C131.728 34.9224 136.75 39.944 142.972 39.944V36.944ZM134.728 28.7C134.728 24.1983 138.401 20.514 142.972 20.514V17.514C136.756 17.514 131.728 22.5297 131.728 28.7H134.728ZM142.972 20.514H172.958V17.514H142.972V20.514ZM172.958 20.514C177.466 20.514 181.144 24.1924 181.144 28.7H184.144C184.144 22.5356 179.123 17.514 172.958 17.514V20.514ZM181.144 28.7C181.144 33.2714 177.46 36.944 172.958 36.944V39.944C179.128 39.944 184.144 34.9166 184.144 28.7H181.144Z" fill="white" fill-opacity="0.2"/>
<path d="M251.987 19.014V20.514L253.487 19.014H251.987ZM251.987 8.4H253.487L251.987 6.9V8.4ZM199.033 8.4V6.9L197.533 8.4H199.033ZM199.033 49H197.533L199.033 50.5V49ZM251.987 49V50.5L253.487 49H251.987ZM251.987 38.444H253.487L251.987 36.944V38.444ZM209.589 38.444H208.089L209.589 39.944V38.444ZM209.589 33.166V31.666L208.089 33.166H209.589ZM251.987 33.166V34.666L253.487 33.166H251.987ZM251.987 22.552H253.487L251.987 21.052V22.552ZM209.589 22.552H208.089L209.589 24.052V22.552ZM209.589 19.014V17.514L208.089 19.014H209.589ZM253.487 19.014V8.4H250.487V19.014H253.487ZM251.987 6.9H199.033V9.9H251.987V6.9ZM197.533 8.4V49H200.533V8.4H197.533ZM199.033 50.5H251.987V47.5H199.033V50.5ZM253.487 49V38.444H250.487V49H253.487ZM251.987 36.944H209.589V39.944H251.987V36.944ZM211.089 38.444V33.166H208.089V38.444H211.089ZM209.589 34.666H251.987V31.666H209.589V34.666ZM253.487 33.166V22.552H250.487V33.166H253.487ZM251.987 21.052H209.589V24.052H251.987V21.052ZM211.089 22.552V19.014H208.089V22.552H211.089ZM209.589 20.514H251.987V17.514H209.589V20.514Z" fill="white" fill-opacity="0.2"/>
<path d="M314.439 8.4L315.856 8.89011L314.439 6.9V8.4ZM303.013 8.4V6.9L301.596 7.90654L303.013 8.4ZM298.083 22.552V24.052L299.499 23.0455L298.083 22.552ZM268.561 22.552H267.061L268.561 24.052V22.552ZM268.561 8.4H270.061L268.561 6.9V8.4ZM258.005 8.4V6.9L256.505 8.4H258.005ZM258.005 49H256.505L258.005 50.5V49ZM268.561 49V50.5L270.061 49H268.561ZM268.561 33.166V31.666L267.061 33.166H268.561ZM297.503 33.166L298.919 32.673L297.503 31.666V33.166ZM303.013 49L301.596 49.493L303.013 50.5V49ZM314.439 49V50.5L315.856 48.5099L314.439 49ZM307.421 28.7L306.003 28.2099V29.1901L307.421 28.7ZM314.439 6.9H303.013V9.9H314.439V6.9ZM301.596 7.90654L296.666 22.0585L299.499 23.0455L304.429 8.89345L301.596 7.90654ZM298.083 21.052H268.561V24.052H298.083V21.052ZM270.061 22.552V8.4H267.061V22.552H270.061ZM268.561 6.9H258.005V9.9H268.561V6.9ZM256.505 8.4V49H259.505V8.4H256.505ZM258.005 50.5H268.561V47.5H258.005V50.5ZM270.061 49V33.166H267.061V49H270.061ZM268.561 34.666H297.503V31.666H268.561V34.666ZM296.086 33.659L301.596 49.493L304.429 48.507L298.919 32.673L296.086 33.659ZM303.013 50.5H314.439V47.5H303.013V50.5ZM315.856 48.5099L308.838 28.2099L306.003 29.1901L313.021 49.4901L315.856 48.5099ZM308.838 29.1901L315.856 8.89011L313.021 7.90989L306.003 28.2099L308.838 29.1901Z" fill="white" fill-opacity="0.2"/>
<path d="M319.033 8.4V6.9L317.533 8.4H319.033ZM319.033 19.014H317.533L319.033 20.514V19.014ZM340.203 19.014H341.703L340.203 17.514V19.014ZM340.203 49H338.703L340.203 50.5V49ZM350.759 49V50.5L352.259 49H350.759ZM350.759 19.014V17.514L349.259 19.014H350.759ZM371.987 19.014V20.514L373.487 19.014H371.987ZM371.987 8.4H373.487L371.987 6.9V8.4ZM317.533 8.4V19.014H320.533V8.4H317.533ZM319.033 20.514H340.203V17.514H319.033V20.514ZM338.703 19.014V49H341.703V19.014H338.703ZM340.203 50.5H350.759V47.5H340.203V50.5ZM352.259 49V19.014H349.259V49H352.259ZM350.759 20.514H371.987V17.514H350.759V20.514ZM373.487 19.014V8.4H370.487V19.014H373.487ZM371.987 6.9H319.033V9.9H371.987V6.9Z" fill="white" fill-opacity="0.2"/>
<path d="M387.561 19.014H386.061L387.561 20.514V19.014ZM387.561 8.4H389.061L387.561 6.9V8.4ZM377.005 8.4V6.9L375.505 8.4H377.005ZM377.005 49H375.505L377.005 50.5V49ZM387.561 38.444H386.061L387.561 39.944V38.444ZM387.561 29.628V28.128L386.061 29.628H387.561ZM419.345 8.4V6.9L417.845 8.4H419.345ZM419.345 49H417.845L419.345 50.5V49ZM429.959 49V50.5L431.459 49H429.959ZM429.959 8.4H431.459L429.959 6.9V8.4ZM404.323 17.514H387.561V20.514H404.323V17.514ZM389.061 19.014V8.4H386.061V19.014H389.061ZM387.561 6.9H377.005V9.9H387.561V6.9ZM375.505 8.4V49H378.505V8.4H375.505ZM377.005 50.5H404.323V47.5H377.005V50.5ZM404.323 50.5C413.441 50.5 420.845 43.1042 420.845 34.036H417.845C417.845 41.4398 411.792 47.5 404.323 47.5V50.5ZM420.845 34.036C420.845 24.9136 413.445 17.514 404.323 17.514V20.514C411.788 20.514 417.845 26.5704 417.845 34.036H420.845ZM404.323 36.944H387.561V39.944H404.323V36.944ZM389.061 38.444V29.628H386.061V38.444H389.061ZM387.561 31.128H404.323V28.128H387.561V31.128ZM404.323 31.128C405.93 31.128 407.231 32.4284 407.231 34.036H410.231C410.231 30.7716 407.587 28.128 404.323 28.128V31.128ZM407.231 34.036C407.231 35.6436 405.93 36.944 404.323 36.944V39.944C407.587 39.944 410.231 37.3004 410.231 34.036H407.231ZM417.845 8.4V49H420.845V8.4H417.845ZM419.345 50.5H429.959V47.5H419.345V50.5ZM431.459 49V8.4H428.459V49H431.459ZM429.959 6.9H419.345V9.9H429.959V6.9Z" fill="white" fill-opacity="0.2"/>
</svg>
