<svg width="432" height="64" viewBox="0 0 432 64" fill="none" xmlns="http://www.w3.org/2000/svg">
<path d="M2.0332 7.65039L1.2832 8.40039V49.0004L2.0332 49.7504H12.5892L13.3392 49.0004V19.7644H43.6232V49.0004L44.3732 49.7504H54.9872L55.7372 49.0004V8.40039L54.9872 7.65039H2.0332ZM61.0049 7.65039L60.2549 8.40039V49.0004L61.0049 49.7504H71.5609L72.3109 49.0004V39.1944H102.475C111.127 39.1944 118.189 32.1287 118.189 23.4224C118.189 14.776 111.129 7.65039 102.475 7.65039H61.0049ZM251.987 19.7644L252.737 19.0144V8.40039L251.987 7.65039H199.033L198.283 8.40039V49.0004L199.033 49.7504H251.987L252.737 49.0004V38.4444L251.987 37.6944H210.339V33.9164H251.987L252.737 33.1664V22.5524L251.987 21.8024H210.339V19.7644H251.987ZM315.148 8.64544L314.439 7.65039H303.013L302.305 8.15366L297.55 21.8024H269.311V8.40039L268.561 7.65039H258.005L257.255 8.40039V49.0004L258.005 49.7504H268.561L269.311 49.0004V33.9164H296.97L302.305 49.2469L303.013 49.7504H314.439L315.148 48.7553L308.214 28.7004L315.148 8.64544ZM319.033 7.65039L318.283 8.40039V19.0144L319.033 19.7644H339.453V49.0004L340.203 49.7504H350.759L351.509 49.0004V19.7644H371.987L372.737 19.0144V8.40039L371.987 7.65039H319.033ZM404.323 49.7504C410.627 49.7504 416.071 46.0481 418.595 40.7205V49.0004L419.345 49.7504H429.959L430.709 49.0004V8.40039L429.959 7.65039H419.345L418.595 8.40039V27.3164C416.071 21.9674 410.628 18.2644 404.323 18.2644H388.311V8.40039L387.561 7.65039H377.005L376.255 8.40039V49.0004L377.005 49.7504H404.323ZM102.475 27.0804H72.3109V19.7644H102.475C104.497 19.7644 106.133 21.4006 106.133 23.4224C106.133 25.4442 104.497 27.0804 102.475 27.0804ZM172.958 7.65039H142.972C131.363 7.65039 121.922 17.1516 121.922 28.7004C121.922 40.3086 131.364 49.7504 142.972 49.7504H172.958C184.567 49.7504 194.008 40.3086 194.008 28.7004C194.008 17.1516 184.568 7.65039 172.958 7.65039ZM172.958 37.6944H142.972C137.993 37.6944 133.978 33.6802 133.978 28.7004C133.978 23.7815 137.99 19.7644 142.972 19.7644H172.958C177.88 19.7644 181.894 23.7786 181.894 28.7004C181.894 33.6831 177.877 37.6944 172.958 37.6944ZM404.323 37.6944H388.311V30.3784H404.323C406.345 30.3784 407.981 32.0146 407.981 34.0364C407.981 36.0582 406.345 37.6944 404.323 37.6944Z" stroke="white" stroke-opacity="0.2" stroke-width="1.5" stroke-linejoin="bevel"/>
</svg>
