<svg width="118" height="64" viewBox="0 0 118 64" fill="none" xmlns="http://www.w3.org/2000/svg">
<path d="M1.83252 7.90039H1.33252V8.40039V19.0144V19.5144H1.83252H42.4247L39.6993 27.3304H1.83252H1.33252V27.8304V38.4444V38.9444H1.83252H35.6947L32.2168 48.8345L31.9827 49.5004H32.6885H44.1725H44.5282L44.6449 49.1644L58.7389 8.56436L58.9694 7.90039H58.2665H1.83252ZM116.187 33.6664H116.687V33.1664V8.40039V7.90039H116.187H63.2332H62.7332V8.40039V19.0144V19.5144H63.2332H105.073V22.0524H63.2332H62.7332V22.5524V49.0004V49.5004H63.2332H116.187H116.687V49.0004V38.4444V37.9444H116.187H74.2892V33.6664H116.187Z" stroke="white" stroke-opacity="0.4"/>
</svg>
