<svg width="456" height="43" viewBox="0 0 456 43" fill="none" xmlns="http://www.w3.org/2000/svg">
<path d="M57.9112 1.56376L58.1405 0.900391H57.4386H46.0126H45.6574L45.5405 1.23591L40.7273 15.0524H12.0606V1.40039V0.900391H11.5606H1.00464H0.504639V1.40039V42.0004V42.5004H1.00464H11.5606H12.0606V42.0004V26.6664H40.1472L45.5404 42.1647L45.6572 42.5004H46.0126H57.4386H58.1405L57.9112 41.837L50.9497 21.7004L57.9112 1.56376ZM183.349 0.900391H183.063L182.918 1.14684L166.936 28.3111L151.01 1.14751L150.865 0.900391H150.579H135.209H134.709V1.40039V42.0004V42.5004H135.209H145.765H146.265V42.0004V15.9929L161.748 42.2543L161.893 42.5004H162.179H171.749H172.034L172.179 42.2543L187.663 15.9929V42.0004V42.5004H188.163H198.719H199.219V42.0004V1.40039V0.900391H198.719H183.349ZM250.847 1.23642L250.73 0.900391H250.374H218.59H218.235L218.118 1.23642L204.024 41.8364L203.793 42.5004H204.496H215.922H216.277L216.394 42.1663L219.989 31.9444H248.974L252.512 42.1639L252.628 42.5004H252.984H264.468H265.171L264.941 41.8364L250.847 1.23642ZM312.373 0.900391H311.873V1.40039V15.0524H281.089V1.40039V0.900391H280.589H270.033H269.533V1.40039V42.0004V42.5004H270.033H280.589H281.089V42.0004V26.6664H311.873V42.0004V42.5004H312.373H322.987H323.487V42.0004V1.40039V0.900391H322.987H312.373ZM374.847 1.23642L374.73 0.900391H374.374H342.59H342.235L342.118 1.23642L328.024 41.8364L327.793 42.5004H328.496H388.468H389.171L388.941 41.8364L374.847 1.23642ZM440.847 1.23642L440.73 0.900391H440.374H408.59H408.235L408.118 1.23642L394.024 41.8364L393.793 42.5004H394.496H405.922H406.277L406.394 42.1663L409.988 31.9444H438.974L442.512 42.1639L442.628 42.5004H442.984H454.468H455.171L454.941 41.8364L440.847 1.23642ZM108.958 0.900391H78.9721C67.501 0.900391 58.1721 10.2892 58.1721 21.7004C58.1721 33.1705 67.502 42.5004 78.9721 42.5004H108.958C120.428 42.5004 129.758 33.1705 129.758 21.7004C129.758 10.2892 120.429 0.900391 108.958 0.900391ZM108.958 30.9444H78.9721C73.8542 30.9444 69.7281 26.8183 69.7281 21.7004C69.7281 16.6425 73.8523 12.5144 78.9721 12.5144H108.958C114.018 12.5144 118.144 16.6405 118.144 21.7004C118.144 26.8202 114.016 30.9444 108.958 30.9444ZM242.189 12.5144L244.914 20.3304H223.992L226.717 12.5144H242.189ZM366.189 12.5144L372.626 30.9444H344.337L350.718 12.5144H366.189ZM432.189 12.5144L434.914 20.3304H413.992L416.717 12.5144H432.189Z" stroke="white" stroke-opacity="0.2"/>
</svg>
