<svg width="476" height="64" viewBox="0 0 476 64" fill="none" xmlns="http://www.w3.org/2000/svg">
<path d="M61.9114 8.56376L62.1408 7.90039H61.4389H50.0129H49.6576L49.5407 8.23591L44.7276 22.0524H16.0609V8.40039V7.90039H15.5609H5.00488H4.50488V8.40039V49.0004V49.5004H5.00488H15.5609H16.0609V49.0004V33.6664H44.1475L49.5407 49.1647L49.6575 49.5004H50.0129H61.4389H62.1408L61.9114 48.837L54.9499 28.7004L61.9114 8.56376ZM194.349 7.90039H194.063L193.918 8.14684L177.936 35.3111L162.01 8.14751L161.865 7.90039H161.579H146.209H145.709V8.40039V49.0004V49.5004H146.209H156.765H157.265V49.0004V22.9929L172.748 49.2543L172.893 49.5004H173.179H182.749H183.035L183.18 49.2543L198.663 22.9929V49.0004V49.5004H199.163H209.719H210.219V49.0004V8.40039V7.90039H209.719H194.349ZM264.847 8.23642L264.73 7.90039H264.375H232.591H232.235L232.118 8.23642L218.024 48.8364L217.794 49.5004H218.497H229.923H230.277L230.394 49.1663L233.989 38.9444H262.975L266.512 49.1639L266.629 49.5004H266.985H278.469H279.171L278.941 48.8364L264.847 8.23642ZM329.373 7.90039H328.873V8.40039V22.0524H298.089V8.40039V7.90039H297.589H287.033H286.533V8.40039V49.0004V49.5004H287.033H297.589H298.089V49.0004V33.6664H328.873V49.0004V49.5004H329.373H339.987H340.487V49.0004V8.40039V7.90039H339.987H329.373ZM394.847 8.23642L394.73 7.90039H394.375H362.591H362.235L362.118 8.23642L348.024 48.8364L347.794 49.5004H348.497H408.469H409.171L408.941 48.8364L394.847 8.23642ZM459.847 8.23642L459.73 7.90039H459.375H427.591H427.235L427.118 8.23642L413.024 48.8364L412.794 49.5004H413.497H424.923H425.277L425.394 49.1663L428.989 38.9444H457.975L461.512 49.1639L461.629 49.5004H461.985H473.469H474.171L473.941 48.8364L459.847 8.23642ZM116.958 7.90039H86.9723C75.5013 7.90039 66.1723 17.2892 66.1723 28.7004C66.1723 40.1705 75.5022 49.5004 86.9723 49.5004H116.958C128.428 49.5004 137.758 40.1705 137.758 28.7004C137.758 17.2892 128.429 7.90039 116.958 7.90039ZM116.958 37.9444H86.9723C81.8545 37.9444 77.7283 33.8183 77.7283 28.7004C77.7283 23.6425 81.8525 19.5144 86.9723 19.5144H116.958C122.018 19.5144 126.144 23.6405 126.144 28.7004C126.144 33.8202 122.016 37.9444 116.958 37.9444ZM256.189 19.5144L258.915 27.3304H237.992L240.718 19.5144H256.189ZM386.19 19.5144L392.626 37.9444H364.337L370.719 19.5144H386.19ZM451.189 19.5144L453.915 27.3304H432.992L435.718 19.5144H451.189Z" stroke="white" stroke-opacity="0.2"/>
</svg>
