<svg width="476" height="64" viewBox="0 0 476 64" fill="none" xmlns="http://www.w3.org/2000/svg">
<path d="M62.1477 8.64545L61.4389 7.65039H50.0129L49.3046 8.15366L44.5499 21.8024H16.3109V8.40039L15.5609 7.65039H5.00488L4.25488 8.40039V49.0004L5.00488 49.7504H15.5609L16.3109 49.0004V33.9164H43.9698L49.3046 49.2469L50.0129 49.7504H61.4389L62.1477 48.7553L55.2144 28.7004L62.1477 8.64545ZM194.349 7.65039L193.703 8.02007L177.936 34.8174L162.226 8.02107L161.579 7.65039H146.209L145.459 8.40039V49.0004L146.209 49.7504H156.765L157.515 49.0004V23.9092L172.533 49.3813L173.179 49.7504H182.749L183.395 49.3813L198.413 23.9092V49.0004L199.163 49.7504H209.719L210.469 49.0004V8.40039L209.719 7.65039H194.349ZM265.083 8.15443L264.375 7.65039H232.591L231.882 8.15443L217.788 48.7544L218.497 49.7504H229.923L230.63 49.2492L234.166 39.1944H262.797L266.276 49.2457L266.985 49.7504H278.469L279.177 48.7544L265.083 8.15443ZM329.373 7.65039L328.623 8.40039V21.8024H298.339V8.40039L297.589 7.65039H287.033L286.283 8.40039V49.0004L287.033 49.7504H297.589L298.339 49.0004V33.9164H328.623V49.0004L329.373 49.7504H339.987L340.737 49.0004V8.40039L339.987 7.65039H329.373ZM395.083 8.15443L394.375 7.65039H362.591L361.882 8.15443L347.788 48.7544L348.497 49.7504H408.469L409.177 48.7544L395.083 8.15443ZM460.083 8.15443L459.375 7.65039H427.591L426.882 8.15443L412.788 48.7544L413.497 49.7504H424.923L425.63 49.2492L429.166 39.1944H457.797L461.276 49.2457L461.985 49.7504H473.469L474.177 48.7544L460.083 8.15443ZM116.958 7.65039H86.9723C75.3627 7.65039 65.9223 17.1516 65.9223 28.7004C65.9223 40.3086 75.3641 49.7504 86.9723 49.7504H116.958C128.567 49.7504 138.008 40.3086 138.008 28.7004C138.008 17.1516 128.568 7.65039 116.958 7.65039ZM116.958 37.6944H86.9723C81.9926 37.6944 77.9783 33.6802 77.9783 28.7004C77.9783 23.7815 81.9896 19.7644 86.9723 19.7644H116.958C121.88 19.7644 125.894 23.7786 125.894 28.7004C125.894 33.6831 121.877 37.6944 116.958 37.6944ZM256.012 19.7644L258.563 27.0804H238.344L240.895 19.7644H256.012ZM386.012 19.7644L392.274 37.6944H364.688L370.897 19.7644H386.012ZM451.012 19.7644L453.563 27.0804H433.344L435.895 19.7644H451.012Z" stroke="white" stroke-opacity="0.4" stroke-width="1.5" stroke-linejoin="bevel"/>
</svg>
