<svg width="1244" height="128" viewBox="0 0 1244 128" fill="none" xmlns="http://www.w3.org/2000/svg">
<mask id="path-1-outside-1_1072_2666" maskUnits="userSpaceOnUse" x="20.0332" y="7.40039" width="1209" height="107" fill="black">
<rect fill="white" x="20.0332" y="7.40039" width="1209" height="107"/>
<path d="M670.699 84.8124C670.699 77.9684 665.131 72.4004 658.345 72.4004H616.005V83.0144H658.345C659.331 83.0144 660.085 83.8264 660.085 84.8124C660.085 85.7404 659.331 86.5524 658.345 86.5524H616.005V97.1664H657.475C658.925 97.1664 660.085 98.3264 660.085 99.7764C660.085 101.226 658.925 102.444 657.475 102.444H616.005V113H657.475C664.783 113 670.699 107.084 670.699 99.7764C670.699 96.9344 669.771 94.3244 668.263 92.1204C669.771 90.0904 670.699 87.5384 670.699 84.8124Z"/>
<path d="M721.375 72.4004H689.591L675.497 113H686.923L690.635 102.444H720.331L723.985 113H735.469L721.375 72.4004ZM694.289 91.8304L697.363 83.0144H713.545L716.619 91.8304H694.289Z"/>
<path d="M788.375 72.4004H756.591L742.497 113H802.469L788.375 72.4004ZM757.635 102.444L764.363 83.0144H780.545L787.331 102.444H757.635Z"/>
<path d="M856.375 72.4004H824.591L810.497 113H821.923L825.635 102.444H855.331L858.985 113H870.469L856.375 72.4004ZM829.289 91.8304L832.363 83.0144H848.545L851.619 91.8304H829.289Z"/>
<path d="M919.345 72.4004V91.8304H887.561V72.4004H877.005V102.444H919.345V113H929.959V72.4004H919.345Z"/>
<path d="M982.375 72.4004H950.591L936.497 113H947.923L951.635 102.444H981.331L984.985 113H996.469L982.375 72.4004ZM955.289 91.8304L958.363 83.0144H974.545L977.619 91.8304H955.289Z"/>
<path d="M1051.35 72.4004L1034.93 100.298L1018.58 72.4004H1003.21V113H1013.77V85.1604L1030.18 113H1039.75L1056.16 85.1604V113H1066.72V72.4004H1051.35Z"/>
<path d="M1105.02 72.4004L1094.4 102.444H1087.56V72.4004H1077V113H1101.89L1112.5 83.0144H1119.34V113H1129.96V72.4004H1105.02Z"/>
<path d="M130.825 83.0144H166.959V72.4004H130.825C119.631 72.4004 110.525 81.5644 110.525 92.7004C110.525 103.894 119.631 113 130.825 113H166.959V102.444H130.825C125.431 102.444 121.081 98.0944 121.081 92.7004C121.081 87.3644 125.431 83.0144 130.825 83.0144Z"/>
<path d="M249.699 84.8124C249.699 77.9684 244.131 72.4004 237.345 72.4004H195.005V113H236.475C243.783 113 249.699 107.084 249.699 99.7764C249.699 96.9344 248.771 94.3244 247.263 92.1204C248.771 90.0904 249.699 87.5384 249.699 84.8124ZM205.561 83.0144H237.345C238.331 83.0144 239.085 83.8264 239.085 84.8124C239.085 85.7404 238.331 86.5524 237.345 86.5524H205.561V83.0144ZM236.475 102.444H205.561V97.1664H236.475C237.925 97.1664 239.085 98.3264 239.085 99.7764C239.085 101.226 237.925 102.444 236.475 102.444Z"/>
<path d="M300.375 72.4004H268.591L254.497 113H265.923L269.635 102.444H299.331L302.985 113H314.469L300.375 72.4004ZM273.289 91.8304L276.363 83.0144H292.545L295.619 91.8304H273.289Z"/>
<path d="M375.163 72.4004V102.444H359.271V72.4004H348.657V102.444H332.765V72.4004H322.209V113H385.719V72.4004H375.163Z"/>
<path d="M424.019 72.4004L413.405 102.444H406.561V72.4004H396.005V113H420.887L431.501 83.0144H438.345V113H448.959V72.4004H424.019Z"/>
<path d="M507.349 72.4004L490.935 100.298L474.579 72.4004H459.209V113H469.765V85.1604L486.179 113H495.749L512.163 85.1604V113H522.719V72.4004H507.349Z"/>
<path d="M561.019 72.4004L550.405 102.444H543.561V72.4004H533.005V113H557.887L568.501 83.0144H575.345V113H585.959V72.4004H561.019Z"/>
<path d="M21.0332 8.40039V49.0004H31.5892V19.0144H63.3732V49.0004H73.9872V8.40039H21.0332Z"/>
<path d="M130.958 8.40039H100.972C89.7783 8.40039 80.6723 17.5644 80.6723 28.7004C80.6723 39.8944 89.7783 49.0004 100.972 49.0004H130.958C142.152 49.0004 151.258 39.8944 151.258 28.7004C151.258 17.5644 142.152 8.40039 130.958 8.40039ZM130.958 38.4444H100.972C95.5783 38.4444 91.2283 34.0944 91.2283 28.7004C91.2283 23.3644 95.5783 19.0144 100.972 19.0144H130.958C136.294 19.0144 140.644 23.3644 140.644 28.7004C140.644 34.0944 136.294 38.4444 130.958 38.4444Z"/>
<path d="M200.375 8.40039H168.591L154.497 49.0004H214.469L200.375 8.40039ZM169.635 38.4444L176.363 19.0144H192.545L199.331 38.4444H169.635Z"/>
<path d="M262.475 8.40039H221.005V49.0004H231.561V38.4444H262.475C270.711 38.4444 277.439 31.7164 277.439 23.4224C277.439 15.1864 270.711 8.40039 262.475 8.40039ZM262.475 27.8304H231.561V19.0144H262.475C264.911 19.0144 266.883 20.9864 266.883 23.4224C266.883 25.8584 264.911 27.8304 262.475 27.8304Z"/>
<path d="M329.013 8.40039L324.083 22.5524H294.561V8.40039H284.005V33.1664H320.371L318.573 38.4444H284.005V49.0004H326.345L340.439 8.40039H329.013Z"/>
<path d="M414.258 8.40039H402.774L397.902 22.5524H386.012V8.40039H375.398V22.5524H360.028L355.098 8.40039H343.672L350.69 28.7004L343.672 49.0004H355.098L360.608 33.1664H375.398V49.0004H386.012V33.1664H397.264L402.774 49.0004H414.258L407.24 28.7004L414.258 8.40039Z"/>
<path d="M449.019 8.40039L438.405 38.4444H431.561V8.40039H421.005V49.0004H445.887L456.501 19.0144H463.345V49.0004H473.959V8.40039H449.019Z"/>
<path d="M532.349 8.40039L515.935 36.2984L499.579 8.40039H484.209V49.0004H494.765V21.1604L511.179 49.0004H520.749L537.163 21.1604V49.0004H547.719V8.40039H532.349Z"/>
<path d="M582.033 8.40039V19.0144H603.203V49.0004H613.759V19.0144H634.987V8.40039H582.033Z"/>
<path d="M699.699 20.8124C699.699 13.9684 694.131 8.40039 687.345 8.40039H645.005V49.0004H686.475C693.783 49.0004 699.699 43.0844 699.699 35.7764C699.699 32.9344 698.771 30.3244 697.263 28.1204C698.771 26.0904 699.699 23.5384 699.699 20.8124ZM655.561 19.0144H687.345C688.331 19.0144 689.085 19.8264 689.085 20.8124C689.085 21.7404 688.331 22.5524 687.345 22.5524H655.561V19.0144ZM686.475 38.4444H655.561V33.1664H686.475C687.925 33.1664 689.085 34.3264 689.085 35.7764C689.085 37.2264 687.925 38.4444 686.475 38.4444Z"/>
<path d="M754.958 8.40039H724.972C713.778 8.40039 704.672 17.5644 704.672 28.7004C704.672 39.8944 713.778 49.0004 724.972 49.0004H754.958C766.152 49.0004 775.258 39.8944 775.258 28.7004C775.258 17.5644 766.152 8.40039 754.958 8.40039ZM754.958 38.4444H724.972C719.578 38.4444 715.228 34.0944 715.228 28.7004C715.228 23.3644 719.578 19.0144 724.972 19.0144H754.958C760.294 19.0144 764.644 23.3644 764.644 28.7004C764.644 34.0944 760.294 38.4444 754.958 38.4444Z"/>
<path d="M823.475 8.40039H782.005V49.0004H792.561V38.4444H823.475C831.711 38.4444 838.439 31.7164 838.439 23.4224C838.439 15.1864 831.711 8.40039 823.475 8.40039ZM823.475 27.8304H792.561V19.0144H823.475C825.911 19.0144 827.883 20.9864 827.883 23.4224C827.883 25.8584 825.911 27.8304 823.475 27.8304Z"/>
<path d="M887.345 8.40039V27.8304H855.561V8.40039H845.005V38.4444H887.345V49.0004H897.959V8.40039H887.345Z"/>
<path d="M960.987 19.0144V8.40039H908.033V49.0004H960.987V38.4444H918.589V33.1664H960.987V22.5524H918.589V19.0144H960.987Z"/>
<path d="M987.825 19.0144H1023.96V8.40039H987.825C976.631 8.40039 967.525 17.5644 967.525 28.7004C967.525 39.8944 976.631 49.0004 987.825 49.0004H1023.96V38.4444H987.825C982.431 38.4444 978.081 34.0944 978.081 28.7004C978.081 23.3644 982.431 19.0144 987.825 19.0144Z"/>
<path d="M1034.03 8.40039V19.0144H1055.2V49.0004H1065.76V19.0144H1086.99V8.40039H1034.03Z"/>
<path d="M1151.7 20.8124C1151.7 13.9684 1146.13 8.40039 1139.34 8.40039H1097V49.0004H1138.47C1145.78 49.0004 1151.7 43.0844 1151.7 35.7764C1151.7 32.9344 1150.77 30.3244 1149.26 28.1204C1150.77 26.0904 1151.7 23.5384 1151.7 20.8124ZM1107.56 19.0144H1139.34C1140.33 19.0144 1141.08 19.8264 1141.08 20.8124C1141.08 21.7404 1140.33 22.5524 1139.34 22.5524H1107.56V19.0144ZM1138.47 38.4444H1107.56V33.1664H1138.47C1139.92 33.1664 1141.08 34.3264 1141.08 35.7764C1141.08 37.2264 1139.92 38.4444 1138.47 38.4444Z"/>
<path d="M1206.96 8.40039H1176.97C1165.78 8.40039 1156.67 17.5644 1156.67 28.7004C1156.67 39.8944 1165.78 49.0004 1176.97 49.0004H1206.96C1218.15 49.0004 1227.26 39.8944 1227.26 28.7004C1227.26 17.5644 1218.15 8.40039 1206.96 8.40039ZM1206.96 38.4444H1176.97C1171.58 38.4444 1167.23 34.0944 1167.23 28.7004C1167.23 23.3644 1171.58 19.0144 1176.97 19.0144H1206.96C1212.29 19.0144 1216.64 23.3644 1216.64 28.7004C1216.64 34.0944 1212.29 38.4444 1206.96 38.4444Z"/>
</mask>
<path d="M670.699 84.8124C670.699 77.9684 665.131 72.4004 658.345 72.4004H616.005V83.0144H658.345C659.331 83.0144 660.085 83.8264 660.085 84.8124C660.085 85.7404 659.331 86.5524 658.345 86.5524H616.005V97.1664H657.475C658.925 97.1664 660.085 98.3264 660.085 99.7764C660.085 101.226 658.925 102.444 657.475 102.444H616.005V113H657.475C664.783 113 670.699 107.084 670.699 99.7764C670.699 96.9344 669.771 94.3244 668.263 92.1204C669.771 90.0904 670.699 87.5384 670.699 84.8124Z" stroke="white" stroke-opacity="0.4" stroke-width="2" mask="url(#path-1-outside-1_1072_2666)"/>
<path d="M721.375 72.4004H689.591L675.497 113H686.923L690.635 102.444H720.331L723.985 113H735.469L721.375 72.4004ZM694.289 91.8304L697.363 83.0144H713.545L716.619 91.8304H694.289Z" stroke="white" stroke-opacity="0.4" stroke-width="2" mask="url(#path-1-outside-1_1072_2666)"/>
<path d="M788.375 72.4004H756.591L742.497 113H802.469L788.375 72.4004ZM757.635 102.444L764.363 83.0144H780.545L787.331 102.444H757.635Z" stroke="white" stroke-opacity="0.4" stroke-width="2" mask="url(#path-1-outside-1_1072_2666)"/>
<path d="M856.375 72.4004H824.591L810.497 113H821.923L825.635 102.444H855.331L858.985 113H870.469L856.375 72.4004ZM829.289 91.8304L832.363 83.0144H848.545L851.619 91.8304H829.289Z" stroke="white" stroke-opacity="0.4" stroke-width="2" mask="url(#path-1-outside-1_1072_2666)"/>
<path d="M919.345 72.4004V91.8304H887.561V72.4004H877.005V102.444H919.345V113H929.959V72.4004H919.345Z" stroke="white" stroke-opacity="0.4" stroke-width="2" mask="url(#path-1-outside-1_1072_2666)"/>
<path d="M982.375 72.4004H950.591L936.497 113H947.923L951.635 102.444H981.331L984.985 113H996.469L982.375 72.4004ZM955.289 91.8304L958.363 83.0144H974.545L977.619 91.8304H955.289Z" stroke="white" stroke-opacity="0.4" stroke-width="2" mask="url(#path-1-outside-1_1072_2666)"/>
<path d="M1051.35 72.4004L1034.93 100.298L1018.58 72.4004H1003.21V113H1013.77V85.1604L1030.18 113H1039.75L1056.16 85.1604V113H1066.72V72.4004H1051.35Z" stroke="white" stroke-opacity="0.4" stroke-width="2" mask="url(#path-1-outside-1_1072_2666)"/>
<path d="M1105.02 72.4004L1094.4 102.444H1087.56V72.4004H1077V113H1101.89L1112.5 83.0144H1119.34V113H1129.96V72.4004H1105.02Z" stroke="white" stroke-opacity="0.4" stroke-width="2" mask="url(#path-1-outside-1_1072_2666)"/>
<path d="M130.825 83.0144H166.959V72.4004H130.825C119.631 72.4004 110.525 81.5644 110.525 92.7004C110.525 103.894 119.631 113 130.825 113H166.959V102.444H130.825C125.431 102.444 121.081 98.0944 121.081 92.7004C121.081 87.3644 125.431 83.0144 130.825 83.0144Z" stroke="white" stroke-opacity="0.4" stroke-width="2" mask="url(#path-1-outside-1_1072_2666)"/>
<path d="M249.699 84.8124C249.699 77.9684 244.131 72.4004 237.345 72.4004H195.005V113H236.475C243.783 113 249.699 107.084 249.699 99.7764C249.699 96.9344 248.771 94.3244 247.263 92.1204C248.771 90.0904 249.699 87.5384 249.699 84.8124ZM205.561 83.0144H237.345C238.331 83.0144 239.085 83.8264 239.085 84.8124C239.085 85.7404 238.331 86.5524 237.345 86.5524H205.561V83.0144ZM236.475 102.444H205.561V97.1664H236.475C237.925 97.1664 239.085 98.3264 239.085 99.7764C239.085 101.226 237.925 102.444 236.475 102.444Z" stroke="white" stroke-opacity="0.4" stroke-width="2" mask="url(#path-1-outside-1_1072_2666)"/>
<path d="M300.375 72.4004H268.591L254.497 113H265.923L269.635 102.444H299.331L302.985 113H314.469L300.375 72.4004ZM273.289 91.8304L276.363 83.0144H292.545L295.619 91.8304H273.289Z" stroke="white" stroke-opacity="0.4" stroke-width="2" mask="url(#path-1-outside-1_1072_2666)"/>
<path d="M375.163 72.4004V102.444H359.271V72.4004H348.657V102.444H332.765V72.4004H322.209V113H385.719V72.4004H375.163Z" stroke="white" stroke-opacity="0.4" stroke-width="2" mask="url(#path-1-outside-1_1072_2666)"/>
<path d="M424.019 72.4004L413.405 102.444H406.561V72.4004H396.005V113H420.887L431.501 83.0144H438.345V113H448.959V72.4004H424.019Z" stroke="white" stroke-opacity="0.4" stroke-width="2" mask="url(#path-1-outside-1_1072_2666)"/>
<path d="M507.349 72.4004L490.935 100.298L474.579 72.4004H459.209V113H469.765V85.1604L486.179 113H495.749L512.163 85.1604V113H522.719V72.4004H507.349Z" stroke="white" stroke-opacity="0.4" stroke-width="2" mask="url(#path-1-outside-1_1072_2666)"/>
<path d="M561.019 72.4004L550.405 102.444H543.561V72.4004H533.005V113H557.887L568.501 83.0144H575.345V113H585.959V72.4004H561.019Z" stroke="white" stroke-opacity="0.4" stroke-width="2" mask="url(#path-1-outside-1_1072_2666)"/>
<path d="M21.0332 8.40039V49.0004H31.5892V19.0144H63.3732V49.0004H73.9872V8.40039H21.0332Z" stroke="white" stroke-opacity="0.4" stroke-width="2" mask="url(#path-1-outside-1_1072_2666)"/>
<path d="M130.958 8.40039H100.972C89.7783 8.40039 80.6723 17.5644 80.6723 28.7004C80.6723 39.8944 89.7783 49.0004 100.972 49.0004H130.958C142.152 49.0004 151.258 39.8944 151.258 28.7004C151.258 17.5644 142.152 8.40039 130.958 8.40039ZM130.958 38.4444H100.972C95.5783 38.4444 91.2283 34.0944 91.2283 28.7004C91.2283 23.3644 95.5783 19.0144 100.972 19.0144H130.958C136.294 19.0144 140.644 23.3644 140.644 28.7004C140.644 34.0944 136.294 38.4444 130.958 38.4444Z" stroke="white" stroke-opacity="0.4" stroke-width="2" mask="url(#path-1-outside-1_1072_2666)"/>
<path d="M200.375 8.40039H168.591L154.497 49.0004H214.469L200.375 8.40039ZM169.635 38.4444L176.363 19.0144H192.545L199.331 38.4444H169.635Z" stroke="white" stroke-opacity="0.4" stroke-width="2" mask="url(#path-1-outside-1_1072_2666)"/>
<path d="M262.475 8.40039H221.005V49.0004H231.561V38.4444H262.475C270.711 38.4444 277.439 31.7164 277.439 23.4224C277.439 15.1864 270.711 8.40039 262.475 8.40039ZM262.475 27.8304H231.561V19.0144H262.475C264.911 19.0144 266.883 20.9864 266.883 23.4224C266.883 25.8584 264.911 27.8304 262.475 27.8304Z" stroke="white" stroke-opacity="0.4" stroke-width="2" mask="url(#path-1-outside-1_1072_2666)"/>
<path d="M329.013 8.40039L324.083 22.5524H294.561V8.40039H284.005V33.1664H320.371L318.573 38.4444H284.005V49.0004H326.345L340.439 8.40039H329.013Z" stroke="white" stroke-opacity="0.4" stroke-width="2" mask="url(#path-1-outside-1_1072_2666)"/>
<path d="M414.258 8.40039H402.774L397.902 22.5524H386.012V8.40039H375.398V22.5524H360.028L355.098 8.40039H343.672L350.69 28.7004L343.672 49.0004H355.098L360.608 33.1664H375.398V49.0004H386.012V33.1664H397.264L402.774 49.0004H414.258L407.24 28.7004L414.258 8.40039Z" stroke="white" stroke-opacity="0.4" stroke-width="2" mask="url(#path-1-outside-1_1072_2666)"/>
<path d="M449.019 8.40039L438.405 38.4444H431.561V8.40039H421.005V49.0004H445.887L456.501 19.0144H463.345V49.0004H473.959V8.40039H449.019Z" stroke="white" stroke-opacity="0.4" stroke-width="2" mask="url(#path-1-outside-1_1072_2666)"/>
<path d="M532.349 8.40039L515.935 36.2984L499.579 8.40039H484.209V49.0004H494.765V21.1604L511.179 49.0004H520.749L537.163 21.1604V49.0004H547.719V8.40039H532.349Z" stroke="white" stroke-opacity="0.4" stroke-width="2" mask="url(#path-1-outside-1_1072_2666)"/>
<path d="M582.033 8.40039V19.0144H603.203V49.0004H613.759V19.0144H634.987V8.40039H582.033Z" stroke="white" stroke-opacity="0.4" stroke-width="2" mask="url(#path-1-outside-1_1072_2666)"/>
<path d="M699.699 20.8124C699.699 13.9684 694.131 8.40039 687.345 8.40039H645.005V49.0004H686.475C693.783 49.0004 699.699 43.0844 699.699 35.7764C699.699 32.9344 698.771 30.3244 697.263 28.1204C698.771 26.0904 699.699 23.5384 699.699 20.8124ZM655.561 19.0144H687.345C688.331 19.0144 689.085 19.8264 689.085 20.8124C689.085 21.7404 688.331 22.5524 687.345 22.5524H655.561V19.0144ZM686.475 38.4444H655.561V33.1664H686.475C687.925 33.1664 689.085 34.3264 689.085 35.7764C689.085 37.2264 687.925 38.4444 686.475 38.4444Z" stroke="white" stroke-opacity="0.4" stroke-width="2" mask="url(#path-1-outside-1_1072_2666)"/>
<path d="M754.958 8.40039H724.972C713.778 8.40039 704.672 17.5644 704.672 28.7004C704.672 39.8944 713.778 49.0004 724.972 49.0004H754.958C766.152 49.0004 775.258 39.8944 775.258 28.7004C775.258 17.5644 766.152 8.40039 754.958 8.40039ZM754.958 38.4444H724.972C719.578 38.4444 715.228 34.0944 715.228 28.7004C715.228 23.3644 719.578 19.0144 724.972 19.0144H754.958C760.294 19.0144 764.644 23.3644 764.644 28.7004C764.644 34.0944 760.294 38.4444 754.958 38.4444Z" stroke="white" stroke-opacity="0.4" stroke-width="2" mask="url(#path-1-outside-1_1072_2666)"/>
<path d="M823.475 8.40039H782.005V49.0004H792.561V38.4444H823.475C831.711 38.4444 838.439 31.7164 838.439 23.4224C838.439 15.1864 831.711 8.40039 823.475 8.40039ZM823.475 27.8304H792.561V19.0144H823.475C825.911 19.0144 827.883 20.9864 827.883 23.4224C827.883 25.8584 825.911 27.8304 823.475 27.8304Z" stroke="white" stroke-opacity="0.4" stroke-width="2" mask="url(#path-1-outside-1_1072_2666)"/>
<path d="M887.345 8.40039V27.8304H855.561V8.40039H845.005V38.4444H887.345V49.0004H897.959V8.40039H887.345Z" stroke="white" stroke-opacity="0.4" stroke-width="2" mask="url(#path-1-outside-1_1072_2666)"/>
<path d="M960.987 19.0144V8.40039H908.033V49.0004H960.987V38.4444H918.589V33.1664H960.987V22.5524H918.589V19.0144H960.987Z" stroke="white" stroke-opacity="0.4" stroke-width="2" mask="url(#path-1-outside-1_1072_2666)"/>
<path d="M987.825 19.0144H1023.96V8.40039H987.825C976.631 8.40039 967.525 17.5644 967.525 28.7004C967.525 39.8944 976.631 49.0004 987.825 49.0004H1023.96V38.4444H987.825C982.431 38.4444 978.081 34.0944 978.081 28.7004C978.081 23.3644 982.431 19.0144 987.825 19.0144Z" stroke="white" stroke-opacity="0.4" stroke-width="2" mask="url(#path-1-outside-1_1072_2666)"/>
<path d="M1034.03 8.40039V19.0144H1055.2V49.0004H1065.76V19.0144H1086.99V8.40039H1034.03Z" stroke="white" stroke-opacity="0.4" stroke-width="2" mask="url(#path-1-outside-1_1072_2666)"/>
<path d="M1151.7 20.8124C1151.7 13.9684 1146.13 8.40039 1139.34 8.40039H1097V49.0004H1138.47C1145.78 49.0004 1151.7 43.0844 1151.7 35.7764C1151.7 32.9344 1150.77 30.3244 1149.26 28.1204C1150.77 26.0904 1151.7 23.5384 1151.7 20.8124ZM1107.56 19.0144H1139.34C1140.33 19.0144 1141.08 19.8264 1141.08 20.8124C1141.08 21.7404 1140.33 22.5524 1139.34 22.5524H1107.56V19.0144ZM1138.47 38.4444H1107.56V33.1664H1138.47C1139.92 33.1664 1141.08 34.3264 1141.08 35.7764C1141.08 37.2264 1139.92 38.4444 1138.47 38.4444Z" stroke="white" stroke-opacity="0.4" stroke-width="2" mask="url(#path-1-outside-1_1072_2666)"/>
<path d="M1206.96 8.40039H1176.97C1165.78 8.40039 1156.67 17.5644 1156.67 28.7004C1156.67 39.8944 1165.78 49.0004 1176.97 49.0004H1206.96C1218.15 49.0004 1227.26 39.8944 1227.26 28.7004C1227.26 17.5644 1218.15 8.40039 1206.96 8.40039ZM1206.96 38.4444H1176.97C1171.58 38.4444 1167.23 34.0944 1167.23 28.7004C1167.23 23.3644 1171.58 19.0144 1176.97 19.0144H1206.96C1212.29 19.0144 1216.64 23.3644 1216.64 28.7004C1216.64 34.0944 1212.29 38.4444 1206.96 38.4444Z" stroke="white" stroke-opacity="0.4" stroke-width="2" mask="url(#path-1-outside-1_1072_2666)"/>
</svg>
