<svg width="1244" height="128" viewBox="0 0 1244 128" fill="none" xmlns="http://www.w3.org/2000/svg">
<mask id="path-1-outside-1_771_2331" maskUnits="userSpaceOnUse" x="23.0332" y="7.40039" width="1201" height="107" fill="black">
<rect fill="white" x="23.0332" y="7.40039" width="1201" height="107"/>
<path d="M654.699 84.8124C654.699 77.9684 649.131 72.4004 642.345 72.4004H600.005V83.0144H642.345C643.331 83.0144 644.085 83.8264 644.085 84.8124C644.085 85.7404 643.331 86.5524 642.345 86.5524H600.005V97.1664H641.475C642.925 97.1664 644.085 98.3264 644.085 99.7764C644.085 101.226 642.925 102.444 641.475 102.444H600.005V113H641.475C648.783 113 654.699 107.084 654.699 99.7764C654.699 96.9344 653.771 94.3244 652.263 92.1204C653.771 90.0904 654.699 87.5384 654.699 84.8124Z"/>
<path d="M702.375 72.4004H670.591L656.497 113H667.923L671.635 102.444H701.331L704.985 113H716.469L702.375 72.4004ZM675.289 91.8304L678.363 83.0144H694.545L697.619 91.8304H675.289Z"/>
<path d="M796.875 72.4004H765.091L750.997 113H810.969L796.875 72.4004ZM766.135 102.444L772.863 83.0144H789.045L795.831 102.444H766.135Z"/>
<path d="M861.875 72.4004H830.091L815.997 113H827.423L831.135 102.444H860.831L864.485 113H875.969L861.875 72.4004ZM834.789 91.8304L837.863 83.0144H854.045L857.119 91.8304H834.789Z"/>
<path d="M922.345 72.4004V91.8304H890.561V72.4004H880.005V102.444H922.345V113H932.959V72.4004H922.345Z"/>
<path d="M984.375 72.4004H952.591L938.497 113H949.923L953.635 102.444H983.331L986.985 113H998.469L984.375 72.4004ZM957.289 91.8304L960.363 83.0144H976.545L979.619 91.8304H957.289Z"/>
<path d="M1052.35 72.4004L1035.93 100.298L1019.58 72.4004H1004.21V113H1014.77V85.1604L1031.18 113H1040.75L1057.16 85.1604V113H1067.72V72.4004H1052.35Z"/>
<path d="M1101.02 72.4004L1090.4 102.444H1083.56V72.4004H1073V113H1097.89L1108.5 83.0144H1115.34V113H1125.96V72.4004H1101.02Z"/>
<path d="M138.825 83.0144H174.959V72.4004H138.825C127.631 72.4004 118.525 81.5644 118.525 92.7004C118.525 103.894 127.631 113 138.825 113H174.959V102.444H138.825C133.431 102.444 129.081 98.0944 129.081 92.7004C129.081 87.3644 133.431 83.0144 138.825 83.0144Z"/>
<path d="M256.699 84.8124C256.699 77.9684 251.131 72.4004 244.345 72.4004H202.005V113H243.475C250.783 113 256.699 107.084 256.699 99.7764C256.699 96.9344 255.771 94.3244 254.263 92.1204C255.771 90.0904 256.699 87.5384 256.699 84.8124ZM212.561 83.0144H244.345C245.331 83.0144 246.085 83.8264 246.085 84.8124C246.085 85.7404 245.331 86.5524 244.345 86.5524H212.561V83.0144ZM243.475 102.444H212.561V97.1664H243.475C244.925 97.1664 246.085 98.3264 246.085 99.7764C246.085 101.226 244.925 102.444 243.475 102.444Z"/>
<path d="M304.375 72.4004H272.591L258.497 113H269.923L273.635 102.444H303.331L306.985 113H318.469L304.375 72.4004ZM277.289 91.8304L280.363 83.0144H296.545L299.619 91.8304H277.289Z"/>
<path d="M377.163 72.4004V102.444H361.271V72.4004H350.657V102.444H334.765V72.4004H324.209V113H387.719V72.4004H377.163Z"/>
<path d="M421.019 72.4004L410.405 102.444H403.561V72.4004H393.005V113H417.887L428.501 83.0144H435.345V113H445.959V72.4004H421.019Z"/>
<path d="M499.349 72.4004L482.935 100.298L466.579 72.4004H451.209V113H461.765V85.1604L478.179 113H487.749L504.163 85.1604V113H514.719V72.4004H499.349Z"/>
<path d="M548.019 72.4004L537.405 102.444H530.561V72.4004H520.005V113H544.887L555.501 83.0144H562.345V113H572.959V72.4004H548.019Z"/>
<path d="M24.0332 8.40039V49.0004H34.5892V19.0144H66.3732V49.0004H76.9872V8.40039H24.0332Z"/>
<path d="M131.958 8.40039H101.972C90.7783 8.40039 81.6723 17.5644 81.6723 28.7004C81.6723 39.8944 90.7783 49.0004 101.972 49.0004H131.958C143.152 49.0004 152.258 39.8944 152.258 28.7004C152.258 17.5644 143.152 8.40039 131.958 8.40039ZM131.958 38.4444H101.972C96.5783 38.4444 92.2283 34.0944 92.2283 28.7004C92.2283 23.3644 96.5783 19.0144 101.972 19.0144H131.958C137.294 19.0144 141.644 23.3644 141.644 28.7004C141.644 34.0944 137.294 38.4444 131.958 38.4444Z"/>
<path d="M198.375 8.40039H166.591L152.497 49.0004H212.469L198.375 8.40039ZM167.635 38.4444L174.363 19.0144H190.545L197.331 38.4444H167.635Z"/>
<path d="M259.475 8.40039H218.005V49.0004H228.561V38.4444H259.475C267.711 38.4444 274.439 31.7164 274.439 23.4224C274.439 15.1864 267.711 8.40039 259.475 8.40039ZM259.475 27.8304H228.561V19.0144H259.475C261.911 19.0144 263.883 20.9864 263.883 23.4224C263.883 25.8584 261.911 27.8304 259.475 27.8304Z"/>
<path d="M324.013 8.40039L319.083 22.5524H289.561V8.40039H279.005V33.1664H315.371L313.573 38.4444H279.005V49.0004H321.345L335.439 8.40039H324.013Z"/>
<path d="M411.258 8.40039H399.774L394.902 22.5524H383.012V8.40039H372.398V22.5524H357.028L352.098 8.40039H340.672L347.69 28.7004L340.672 49.0004H352.098L357.608 33.1664H372.398V49.0004H383.012V33.1664H394.264L399.774 49.0004H411.258L404.24 28.7004L411.258 8.40039Z"/>
<path d="M444.019 8.40039L433.405 38.4444H426.561V8.40039H416.005V49.0004H440.887L451.501 19.0144H458.345V49.0004H468.959V8.40039H444.019Z"/>
<path d="M556.349 8.40039L539.935 36.2984L523.579 8.40039H508.209V49.0004H518.765V21.1604L535.179 49.0004H544.749L561.163 21.1604V49.0004H571.719V8.40039H556.349Z"/>
<path d="M577.033 8.40039V19.0144H598.203V49.0004H608.759V19.0144H629.987V8.40039H577.033Z"/>
<path d="M689.699 20.8124C689.699 13.9684 684.131 8.40039 677.345 8.40039H635.005V49.0004H676.475C683.783 49.0004 689.699 43.0844 689.699 35.7764C689.699 32.9344 688.771 30.3244 687.263 28.1204C688.771 26.0904 689.699 23.5384 689.699 20.8124ZM645.561 19.0144H677.345C678.331 19.0144 679.085 19.8264 679.085 20.8124C679.085 21.7404 678.331 22.5524 677.345 22.5524H645.561V19.0144ZM676.475 38.4444H645.561V33.1664H676.475C677.925 33.1664 679.085 34.3264 679.085 35.7764C679.085 37.2264 677.925 38.4444 676.475 38.4444Z"/>
<path d="M744.958 8.40039H714.972C703.778 8.40039 694.672 17.5644 694.672 28.7004C694.672 39.8944 703.778 49.0004 714.972 49.0004H744.958C756.152 49.0004 765.258 39.8944 765.258 28.7004C765.258 17.5644 756.152 8.40039 744.958 8.40039ZM744.958 38.4444H714.972C709.578 38.4444 705.228 34.0944 705.228 28.7004C705.228 23.3644 709.578 19.0144 714.972 19.0144H744.958C750.294 19.0144 754.644 23.3644 754.644 28.7004C754.644 34.0944 750.294 38.4444 744.958 38.4444Z"/>
<path d="M811.475 8.40039H770.005V49.0004H780.561V38.4444H811.475C819.711 38.4444 826.439 31.7164 826.439 23.4224C826.439 15.1864 819.711 8.40039 811.475 8.40039ZM811.475 27.8304H780.561V19.0144H811.475C813.911 19.0144 815.883 20.9864 815.883 23.4224C815.883 25.8584 813.911 27.8304 811.475 27.8304Z"/>
<path d="M901.845 8.40039V27.8304H870.061V8.40039H859.505V38.4444H901.845V49.0004H912.459V8.40039H901.845Z"/>
<path d="M970.987 19.0144V8.40039H918.033V49.0004H970.987V38.4444H928.589V33.1664H970.987V22.5524H928.589V19.0144H970.987Z"/>
<path d="M995.825 19.0144H1031.96V8.40039H995.825C984.631 8.40039 975.525 17.5644 975.525 28.7004C975.525 39.8944 984.631 49.0004 995.825 49.0004H1031.96V38.4444H995.825C990.431 38.4444 986.081 34.0944 986.081 28.7004C986.081 23.3644 990.431 19.0144 995.825 19.0144Z"/>
<path d="M1036.03 8.40039V19.0144H1057.2V49.0004H1067.76V19.0144H1088.99V8.40039H1036.03Z"/>
<path d="M1147.7 20.8124C1147.7 13.9684 1142.13 8.40039 1135.34 8.40039H1093V49.0004H1134.47C1141.78 49.0004 1147.7 43.0844 1147.7 35.7764C1147.7 32.9344 1146.77 30.3244 1145.26 28.1204C1146.77 26.0904 1147.7 23.5384 1147.7 20.8124ZM1103.56 19.0144H1135.34C1136.33 19.0144 1137.08 19.8264 1137.08 20.8124C1137.08 21.7404 1136.33 22.5524 1135.34 22.5524H1103.56V19.0144ZM1134.47 38.4444H1103.56V33.1664H1134.47C1135.92 33.1664 1137.08 34.3264 1137.08 35.7764C1137.08 37.2264 1135.92 38.4444 1134.47 38.4444Z"/>
<path d="M1201.96 8.40039H1171.97C1160.78 8.40039 1151.67 17.5644 1151.67 28.7004C1151.67 39.8944 1160.78 49.0004 1171.97 49.0004H1201.96C1213.15 49.0004 1222.26 39.8944 1222.26 28.7004C1222.26 17.5644 1213.15 8.40039 1201.96 8.40039ZM1201.96 38.4444H1171.97C1166.58 38.4444 1162.23 34.0944 1162.23 28.7004C1162.23 23.3644 1166.58 19.0144 1171.97 19.0144H1201.96C1207.29 19.0144 1211.64 23.3644 1211.64 28.7004C1211.64 34.0944 1207.29 38.4444 1201.96 38.4444Z"/>
</mask>
<path d="M654.699 84.8124C654.699 77.9684 649.131 72.4004 642.345 72.4004H600.005V83.0144H642.345C643.331 83.0144 644.085 83.8264 644.085 84.8124C644.085 85.7404 643.331 86.5524 642.345 86.5524H600.005V97.1664H641.475C642.925 97.1664 644.085 98.3264 644.085 99.7764C644.085 101.226 642.925 102.444 641.475 102.444H600.005V113H641.475C648.783 113 654.699 107.084 654.699 99.7764C654.699 96.9344 653.771 94.3244 652.263 92.1204C653.771 90.0904 654.699 87.5384 654.699 84.8124Z" stroke="white" stroke-opacity="0.2" stroke-width="2" mask="url(#path-1-outside-1_771_2331)"/>
<path d="M702.375 72.4004H670.591L656.497 113H667.923L671.635 102.444H701.331L704.985 113H716.469L702.375 72.4004ZM675.289 91.8304L678.363 83.0144H694.545L697.619 91.8304H675.289Z" stroke="white" stroke-opacity="0.2" stroke-width="2" mask="url(#path-1-outside-1_771_2331)"/>
<path d="M796.875 72.4004H765.091L750.997 113H810.969L796.875 72.4004ZM766.135 102.444L772.863 83.0144H789.045L795.831 102.444H766.135Z" stroke="white" stroke-opacity="0.2" stroke-width="2" mask="url(#path-1-outside-1_771_2331)"/>
<path d="M861.875 72.4004H830.091L815.997 113H827.423L831.135 102.444H860.831L864.485 113H875.969L861.875 72.4004ZM834.789 91.8304L837.863 83.0144H854.045L857.119 91.8304H834.789Z" stroke="white" stroke-opacity="0.2" stroke-width="2" mask="url(#path-1-outside-1_771_2331)"/>
<path d="M922.345 72.4004V91.8304H890.561V72.4004H880.005V102.444H922.345V113H932.959V72.4004H922.345Z" stroke="white" stroke-opacity="0.2" stroke-width="2" mask="url(#path-1-outside-1_771_2331)"/>
<path d="M984.375 72.4004H952.591L938.497 113H949.923L953.635 102.444H983.331L986.985 113H998.469L984.375 72.4004ZM957.289 91.8304L960.363 83.0144H976.545L979.619 91.8304H957.289Z" stroke="white" stroke-opacity="0.2" stroke-width="2" mask="url(#path-1-outside-1_771_2331)"/>
<path d="M1052.35 72.4004L1035.93 100.298L1019.58 72.4004H1004.21V113H1014.77V85.1604L1031.18 113H1040.75L1057.16 85.1604V113H1067.72V72.4004H1052.35Z" stroke="white" stroke-opacity="0.2" stroke-width="2" mask="url(#path-1-outside-1_771_2331)"/>
<path d="M1101.02 72.4004L1090.4 102.444H1083.56V72.4004H1073V113H1097.89L1108.5 83.0144H1115.34V113H1125.96V72.4004H1101.02Z" stroke="white" stroke-opacity="0.2" stroke-width="2" mask="url(#path-1-outside-1_771_2331)"/>
<path d="M138.825 83.0144H174.959V72.4004H138.825C127.631 72.4004 118.525 81.5644 118.525 92.7004C118.525 103.894 127.631 113 138.825 113H174.959V102.444H138.825C133.431 102.444 129.081 98.0944 129.081 92.7004C129.081 87.3644 133.431 83.0144 138.825 83.0144Z" stroke="white" stroke-opacity="0.2" stroke-width="2" mask="url(#path-1-outside-1_771_2331)"/>
<path d="M256.699 84.8124C256.699 77.9684 251.131 72.4004 244.345 72.4004H202.005V113H243.475C250.783 113 256.699 107.084 256.699 99.7764C256.699 96.9344 255.771 94.3244 254.263 92.1204C255.771 90.0904 256.699 87.5384 256.699 84.8124ZM212.561 83.0144H244.345C245.331 83.0144 246.085 83.8264 246.085 84.8124C246.085 85.7404 245.331 86.5524 244.345 86.5524H212.561V83.0144ZM243.475 102.444H212.561V97.1664H243.475C244.925 97.1664 246.085 98.3264 246.085 99.7764C246.085 101.226 244.925 102.444 243.475 102.444Z" stroke="white" stroke-opacity="0.2" stroke-width="2" mask="url(#path-1-outside-1_771_2331)"/>
<path d="M304.375 72.4004H272.591L258.497 113H269.923L273.635 102.444H303.331L306.985 113H318.469L304.375 72.4004ZM277.289 91.8304L280.363 83.0144H296.545L299.619 91.8304H277.289Z" stroke="white" stroke-opacity="0.2" stroke-width="2" mask="url(#path-1-outside-1_771_2331)"/>
<path d="M377.163 72.4004V102.444H361.271V72.4004H350.657V102.444H334.765V72.4004H324.209V113H387.719V72.4004H377.163Z" stroke="white" stroke-opacity="0.2" stroke-width="2" mask="url(#path-1-outside-1_771_2331)"/>
<path d="M421.019 72.4004L410.405 102.444H403.561V72.4004H393.005V113H417.887L428.501 83.0144H435.345V113H445.959V72.4004H421.019Z" stroke="white" stroke-opacity="0.2" stroke-width="2" mask="url(#path-1-outside-1_771_2331)"/>
<path d="M499.349 72.4004L482.935 100.298L466.579 72.4004H451.209V113H461.765V85.1604L478.179 113H487.749L504.163 85.1604V113H514.719V72.4004H499.349Z" stroke="white" stroke-opacity="0.2" stroke-width="2" mask="url(#path-1-outside-1_771_2331)"/>
<path d="M548.019 72.4004L537.405 102.444H530.561V72.4004H520.005V113H544.887L555.501 83.0144H562.345V113H572.959V72.4004H548.019Z" stroke="white" stroke-opacity="0.2" stroke-width="2" mask="url(#path-1-outside-1_771_2331)"/>
<path d="M24.0332 8.40039V49.0004H34.5892V19.0144H66.3732V49.0004H76.9872V8.40039H24.0332Z" stroke="white" stroke-opacity="0.2" stroke-width="2" mask="url(#path-1-outside-1_771_2331)"/>
<path d="M131.958 8.40039H101.972C90.7783 8.40039 81.6723 17.5644 81.6723 28.7004C81.6723 39.8944 90.7783 49.0004 101.972 49.0004H131.958C143.152 49.0004 152.258 39.8944 152.258 28.7004C152.258 17.5644 143.152 8.40039 131.958 8.40039ZM131.958 38.4444H101.972C96.5783 38.4444 92.2283 34.0944 92.2283 28.7004C92.2283 23.3644 96.5783 19.0144 101.972 19.0144H131.958C137.294 19.0144 141.644 23.3644 141.644 28.7004C141.644 34.0944 137.294 38.4444 131.958 38.4444Z" stroke="white" stroke-opacity="0.2" stroke-width="2" mask="url(#path-1-outside-1_771_2331)"/>
<path d="M198.375 8.40039H166.591L152.497 49.0004H212.469L198.375 8.40039ZM167.635 38.4444L174.363 19.0144H190.545L197.331 38.4444H167.635Z" stroke="white" stroke-opacity="0.2" stroke-width="2" mask="url(#path-1-outside-1_771_2331)"/>
<path d="M259.475 8.40039H218.005V49.0004H228.561V38.4444H259.475C267.711 38.4444 274.439 31.7164 274.439 23.4224C274.439 15.1864 267.711 8.40039 259.475 8.40039ZM259.475 27.8304H228.561V19.0144H259.475C261.911 19.0144 263.883 20.9864 263.883 23.4224C263.883 25.8584 261.911 27.8304 259.475 27.8304Z" stroke="white" stroke-opacity="0.2" stroke-width="2" mask="url(#path-1-outside-1_771_2331)"/>
<path d="M324.013 8.40039L319.083 22.5524H289.561V8.40039H279.005V33.1664H315.371L313.573 38.4444H279.005V49.0004H321.345L335.439 8.40039H324.013Z" stroke="white" stroke-opacity="0.2" stroke-width="2" mask="url(#path-1-outside-1_771_2331)"/>
<path d="M411.258 8.40039H399.774L394.902 22.5524H383.012V8.40039H372.398V22.5524H357.028L352.098 8.40039H340.672L347.69 28.7004L340.672 49.0004H352.098L357.608 33.1664H372.398V49.0004H383.012V33.1664H394.264L399.774 49.0004H411.258L404.24 28.7004L411.258 8.40039Z" stroke="white" stroke-opacity="0.2" stroke-width="2" mask="url(#path-1-outside-1_771_2331)"/>
<path d="M444.019 8.40039L433.405 38.4444H426.561V8.40039H416.005V49.0004H440.887L451.501 19.0144H458.345V49.0004H468.959V8.40039H444.019Z" stroke="white" stroke-opacity="0.2" stroke-width="2" mask="url(#path-1-outside-1_771_2331)"/>
<path d="M556.349 8.40039L539.935 36.2984L523.579 8.40039H508.209V49.0004H518.765V21.1604L535.179 49.0004H544.749L561.163 21.1604V49.0004H571.719V8.40039H556.349Z" stroke="white" stroke-opacity="0.2" stroke-width="2" mask="url(#path-1-outside-1_771_2331)"/>
<path d="M577.033 8.40039V19.0144H598.203V49.0004H608.759V19.0144H629.987V8.40039H577.033Z" stroke="white" stroke-opacity="0.2" stroke-width="2" mask="url(#path-1-outside-1_771_2331)"/>
<path d="M689.699 20.8124C689.699 13.9684 684.131 8.40039 677.345 8.40039H635.005V49.0004H676.475C683.783 49.0004 689.699 43.0844 689.699 35.7764C689.699 32.9344 688.771 30.3244 687.263 28.1204C688.771 26.0904 689.699 23.5384 689.699 20.8124ZM645.561 19.0144H677.345C678.331 19.0144 679.085 19.8264 679.085 20.8124C679.085 21.7404 678.331 22.5524 677.345 22.5524H645.561V19.0144ZM676.475 38.4444H645.561V33.1664H676.475C677.925 33.1664 679.085 34.3264 679.085 35.7764C679.085 37.2264 677.925 38.4444 676.475 38.4444Z" stroke="white" stroke-opacity="0.2" stroke-width="2" mask="url(#path-1-outside-1_771_2331)"/>
<path d="M744.958 8.40039H714.972C703.778 8.40039 694.672 17.5644 694.672 28.7004C694.672 39.8944 703.778 49.0004 714.972 49.0004H744.958C756.152 49.0004 765.258 39.8944 765.258 28.7004C765.258 17.5644 756.152 8.40039 744.958 8.40039ZM744.958 38.4444H714.972C709.578 38.4444 705.228 34.0944 705.228 28.7004C705.228 23.3644 709.578 19.0144 714.972 19.0144H744.958C750.294 19.0144 754.644 23.3644 754.644 28.7004C754.644 34.0944 750.294 38.4444 744.958 38.4444Z" stroke="white" stroke-opacity="0.2" stroke-width="2" mask="url(#path-1-outside-1_771_2331)"/>
<path d="M811.475 8.40039H770.005V49.0004H780.561V38.4444H811.475C819.711 38.4444 826.439 31.7164 826.439 23.4224C826.439 15.1864 819.711 8.40039 811.475 8.40039ZM811.475 27.8304H780.561V19.0144H811.475C813.911 19.0144 815.883 20.9864 815.883 23.4224C815.883 25.8584 813.911 27.8304 811.475 27.8304Z" stroke="white" stroke-opacity="0.2" stroke-width="2" mask="url(#path-1-outside-1_771_2331)"/>
<path d="M901.845 8.40039V27.8304H870.061V8.40039H859.505V38.4444H901.845V49.0004H912.459V8.40039H901.845Z" stroke="white" stroke-opacity="0.2" stroke-width="2" mask="url(#path-1-outside-1_771_2331)"/>
<path d="M970.987 19.0144V8.40039H918.033V49.0004H970.987V38.4444H928.589V33.1664H970.987V22.5524H928.589V19.0144H970.987Z" stroke="white" stroke-opacity="0.2" stroke-width="2" mask="url(#path-1-outside-1_771_2331)"/>
<path d="M995.825 19.0144H1031.96V8.40039H995.825C984.631 8.40039 975.525 17.5644 975.525 28.7004C975.525 39.8944 984.631 49.0004 995.825 49.0004H1031.96V38.4444H995.825C990.431 38.4444 986.081 34.0944 986.081 28.7004C986.081 23.3644 990.431 19.0144 995.825 19.0144Z" stroke="white" stroke-opacity="0.2" stroke-width="2" mask="url(#path-1-outside-1_771_2331)"/>
<path d="M1036.03 8.40039V19.0144H1057.2V49.0004H1067.76V19.0144H1088.99V8.40039H1036.03Z" stroke="white" stroke-opacity="0.2" stroke-width="2" mask="url(#path-1-outside-1_771_2331)"/>
<path d="M1147.7 20.8124C1147.7 13.9684 1142.13 8.40039 1135.34 8.40039H1093V49.0004H1134.47C1141.78 49.0004 1147.7 43.0844 1147.7 35.7764C1147.7 32.9344 1146.77 30.3244 1145.26 28.1204C1146.77 26.0904 1147.7 23.5384 1147.7 20.8124ZM1103.56 19.0144H1135.34C1136.33 19.0144 1137.08 19.8264 1137.08 20.8124C1137.08 21.7404 1136.33 22.5524 1135.34 22.5524H1103.56V19.0144ZM1134.47 38.4444H1103.56V33.1664H1134.47C1135.92 33.1664 1137.08 34.3264 1137.08 35.7764C1137.08 37.2264 1135.92 38.4444 1134.47 38.4444Z" stroke="white" stroke-opacity="0.2" stroke-width="2" mask="url(#path-1-outside-1_771_2331)"/>
<path d="M1201.96 8.40039H1171.97C1160.78 8.40039 1151.67 17.5644 1151.67 28.7004C1151.67 39.8944 1160.78 49.0004 1171.97 49.0004H1201.96C1213.15 49.0004 1222.26 39.8944 1222.26 28.7004C1222.26 17.5644 1213.15 8.40039 1201.96 8.40039ZM1201.96 38.4444H1171.97C1166.58 38.4444 1162.23 34.0944 1162.23 28.7004C1162.23 23.3644 1166.58 19.0144 1171.97 19.0144H1201.96C1207.29 19.0144 1211.64 23.3644 1211.64 28.7004C1211.64 34.0944 1207.29 38.4444 1201.96 38.4444Z" stroke="white" stroke-opacity="0.2" stroke-width="2" mask="url(#path-1-outside-1_771_2331)"/>
</svg>
