<svg width="1244" height="128" viewBox="0 0 1244 128" fill="none" xmlns="http://www.w3.org/2000/svg">
<mask id="path-1-outside-1_1011_2659" maskUnits="userSpaceOnUse" x="38.0332" y="7.40039" width="1172" height="107" fill="black">
<rect fill="white" x="38.0332" y="7.40039" width="1172" height="107"/>
<path d="M666.699 84.8124C666.699 77.9684 661.131 72.4004 654.345 72.4004H612.005V83.0144H654.345C655.331 83.0144 656.085 83.8264 656.085 84.8124C656.085 85.7404 655.331 86.5524 654.345 86.5524H612.005V97.1664H653.475C654.925 97.1664 656.085 98.3264 656.085 99.7764C656.085 101.226 654.925 102.444 653.475 102.444H612.005V113H653.475C660.783 113 666.699 107.084 666.699 99.7764C666.699 96.9344 665.771 94.3244 664.263 92.1204C665.771 90.0904 666.699 87.5384 666.699 84.8124Z"/>
<path d="M714.375 72.4004H682.591L668.497 113H679.923L683.635 102.444H713.331L716.985 113H728.469L714.375 72.4004ZM687.289 91.8304L690.363 83.0144H706.545L709.619 91.8304H687.289Z"/>
<path d="M780.375 72.4004H748.591L734.497 113H794.469L780.375 72.4004ZM749.635 102.444L756.363 83.0144H772.545L779.331 102.444H749.635Z"/>
<path d="M845.375 72.4004H813.591L799.497 113H810.923L814.635 102.444H844.331L847.985 113H859.469L845.375 72.4004ZM818.289 91.8304L821.363 83.0144H837.545L840.619 91.8304H818.289Z"/>
<path d="M905.345 72.4004V91.8304H873.561V72.4004H863.005V102.444H905.345V113H915.959V72.4004H905.345Z"/>
<path d="M967.375 72.4004H935.591L921.497 113H932.923L936.635 102.444H966.331L969.985 113H981.469L967.375 72.4004ZM940.289 91.8304L943.363 83.0144H959.545L962.619 91.8304H940.289Z"/>
<path d="M1035.35 72.4004L1018.93 100.298L1002.58 72.4004H987.209V113H997.765V85.1604L1014.18 113H1023.75L1040.16 85.1604V113H1050.72V72.4004H1035.35Z"/>
<path d="M1084.02 72.4004L1073.4 102.444H1066.56V72.4004H1056V113H1080.89L1091.5 83.0144H1098.34V113H1108.96V72.4004H1084.02Z"/>
<path d="M150.825 83.0144H186.959V72.4004H150.825C139.631 72.4004 130.525 81.5644 130.525 92.7004C130.525 103.894 139.631 113 150.825 113H186.959V102.444H150.825C145.431 102.444 141.081 98.0944 141.081 92.7004C141.081 87.3644 145.431 83.0144 150.825 83.0144Z"/>
<path d="M268.699 84.8124C268.699 77.9684 263.131 72.4004 256.345 72.4004H214.005V113H255.475C262.783 113 268.699 107.084 268.699 99.7764C268.699 96.9344 267.771 94.3244 266.263 92.1204C267.771 90.0904 268.699 87.5384 268.699 84.8124ZM224.561 83.0144H256.345C257.331 83.0144 258.085 83.8264 258.085 84.8124C258.085 85.7404 257.331 86.5524 256.345 86.5524H224.561V83.0144ZM255.475 102.444H224.561V97.1664H255.475C256.925 97.1664 258.085 98.3264 258.085 99.7764C258.085 101.226 256.925 102.444 255.475 102.444Z"/>
<path d="M316.375 72.4004H284.591L270.497 113H281.923L285.635 102.444H315.331L318.985 113H330.469L316.375 72.4004ZM289.289 91.8304L292.363 83.0144H308.545L311.619 91.8304H289.289Z"/>
<path d="M389.163 72.4004V102.444H373.271V72.4004H362.657V102.444H346.765V72.4004H336.209V113H399.719V72.4004H389.163Z"/>
<path d="M433.019 72.4004L422.405 102.444H415.561V72.4004H405.005V113H429.887L440.501 83.0144H447.345V113H457.959V72.4004H433.019Z"/>
<path d="M511.349 72.4004L494.935 100.298L478.579 72.4004H463.209V113H473.765V85.1604L490.179 113H499.749L516.163 85.1604V113H526.719V72.4004H511.349Z"/>
<path d="M560.019 72.4004L549.405 102.444H542.561V72.4004H532.005V113H556.887L567.501 83.0144H574.345V113H584.959V72.4004H560.019Z"/>
<path d="M39.0332 8.40039V49.0004H49.5892V19.0144H81.3732V49.0004H91.9872V8.40039H39.0332Z"/>
<path d="M146.958 8.40039H116.972C105.778 8.40039 96.6723 17.5644 96.6723 28.7004C96.6723 39.8944 105.778 49.0004 116.972 49.0004H146.958C158.152 49.0004 167.258 39.8944 167.258 28.7004C167.258 17.5644 158.152 8.40039 146.958 8.40039ZM146.958 38.4444H116.972C111.578 38.4444 107.228 34.0944 107.228 28.7004C107.228 23.3644 111.578 19.0144 116.972 19.0144H146.958C152.294 19.0144 156.644 23.3644 156.644 28.7004C156.644 34.0944 152.294 38.4444 146.958 38.4444Z"/>
<path d="M213.375 8.40039H181.591L167.497 49.0004H227.469L213.375 8.40039ZM182.635 38.4444L189.363 19.0144H205.545L212.331 38.4444H182.635Z"/>
<path d="M274.475 8.40039H233.005V49.0004H243.561V38.4444H274.475C282.711 38.4444 289.439 31.7164 289.439 23.4224C289.439 15.1864 282.711 8.40039 274.475 8.40039ZM274.475 27.8304H243.561V19.0144H274.475C276.911 19.0144 278.883 20.9864 278.883 23.4224C278.883 25.8584 276.911 27.8304 274.475 27.8304Z"/>
<path d="M339.013 8.40039L334.083 22.5524H304.561V8.40039H294.005V33.1664H330.371L328.573 38.4444H294.005V49.0004H336.345L350.439 8.40039H339.013Z"/>
<path d="M426.258 8.40039H414.774L409.902 22.5524H398.012V8.40039H387.398V22.5524H372.028L367.098 8.40039H355.672L362.69 28.7004L355.672 49.0004H367.098L372.608 33.1664H387.398V49.0004H398.012V33.1664H409.264L414.774 49.0004H426.258L419.24 28.7004L426.258 8.40039Z"/>
<path d="M459.019 8.40039L448.405 38.4444H441.561V8.40039H431.005V49.0004H455.887L466.501 19.0144H473.345V49.0004H483.959V8.40039H459.019Z"/>
<path d="M537.349 8.40039L520.935 36.2984L504.579 8.40039H489.209V49.0004H499.765V21.1604L516.179 49.0004H525.749L542.163 21.1604V49.0004H552.719V8.40039H537.349Z"/>
<path d="M592.033 8.40039V19.0144H613.203V49.0004H623.759V19.0144H644.987V8.40039H592.033Z"/>
<path d="M704.699 20.8124C704.699 13.9684 699.131 8.40039 692.345 8.40039H650.005V49.0004H691.475C698.783 49.0004 704.699 43.0844 704.699 35.7764C704.699 32.9344 703.771 30.3244 702.263 28.1204C703.771 26.0904 704.699 23.5384 704.699 20.8124ZM660.561 19.0144H692.345C693.331 19.0144 694.085 19.8264 694.085 20.8124C694.085 21.7404 693.331 22.5524 692.345 22.5524H660.561V19.0144ZM691.475 38.4444H660.561V33.1664H691.475C692.925 33.1664 694.085 34.3264 694.085 35.7764C694.085 37.2264 692.925 38.4444 691.475 38.4444Z"/>
<path d="M759.958 8.40039H729.972C718.778 8.40039 709.672 17.5644 709.672 28.7004C709.672 39.8944 718.778 49.0004 729.972 49.0004H759.958C771.152 49.0004 780.258 39.8944 780.258 28.7004C780.258 17.5644 771.152 8.40039 759.958 8.40039ZM759.958 38.4444H729.972C724.578 38.4444 720.228 34.0944 720.228 28.7004C720.228 23.3644 724.578 19.0144 729.972 19.0144H759.958C765.294 19.0144 769.644 23.3644 769.644 28.7004C769.644 34.0944 765.294 38.4444 759.958 38.4444Z"/>
<path d="M826.475 8.40039H785.005V49.0004H795.561V38.4444H826.475C834.711 38.4444 841.439 31.7164 841.439 23.4224C841.439 15.1864 834.711 8.40039 826.475 8.40039ZM826.475 27.8304H795.561V19.0144H826.475C828.911 19.0144 830.883 20.9864 830.883 23.4224C830.883 25.8584 828.911 27.8304 826.475 27.8304Z"/>
<path d="M888.345 8.40039V27.8304H856.561V8.40039H846.005V38.4444H888.345V49.0004H898.959V8.40039H888.345Z"/>
<path d="M956.987 19.0144V8.40039H904.033V49.0004H956.987V38.4444H914.589V33.1664H956.987V22.5524H914.589V19.0144H956.987Z"/>
<path d="M981.825 19.0144H1017.96V8.40039H981.825C970.631 8.40039 961.525 17.5644 961.525 28.7004C961.525 39.8944 970.631 49.0004 981.825 49.0004H1017.96V38.4444H981.825C976.431 38.4444 972.081 34.0944 972.081 28.7004C972.081 23.3644 976.431 19.0144 981.825 19.0144Z"/>
<path d="M1022.03 8.40039V19.0144H1043.2V49.0004H1053.76V19.0144H1074.99V8.40039H1022.03Z"/>
<path d="M1133.7 20.8124C1133.7 13.9684 1128.13 8.40039 1121.34 8.40039H1079V49.0004H1120.47C1127.78 49.0004 1133.7 43.0844 1133.7 35.7764C1133.7 32.9344 1132.77 30.3244 1131.26 28.1204C1132.77 26.0904 1133.7 23.5384 1133.7 20.8124ZM1089.56 19.0144H1121.34C1122.33 19.0144 1123.08 19.8264 1123.08 20.8124C1123.08 21.7404 1122.33 22.5524 1121.34 22.5524H1089.56V19.0144ZM1120.47 38.4444H1089.56V33.1664H1120.47C1121.92 33.1664 1123.08 34.3264 1123.08 35.7764C1123.08 37.2264 1121.92 38.4444 1120.47 38.4444Z"/>
<path d="M1187.96 8.40039H1157.97C1146.78 8.40039 1137.67 17.5644 1137.67 28.7004C1137.67 39.8944 1146.78 49.0004 1157.97 49.0004H1187.96C1199.15 49.0004 1208.26 39.8944 1208.26 28.7004C1208.26 17.5644 1199.15 8.40039 1187.96 8.40039ZM1187.96 38.4444H1157.97C1152.58 38.4444 1148.23 34.0944 1148.23 28.7004C1148.23 23.3644 1152.58 19.0144 1157.97 19.0144H1187.96C1193.29 19.0144 1197.64 23.3644 1197.64 28.7004C1197.64 34.0944 1193.29 38.4444 1187.96 38.4444Z"/>
</mask>
<path d="M666.699 84.8124C666.699 77.9684 661.131 72.4004 654.345 72.4004H612.005V83.0144H654.345C655.331 83.0144 656.085 83.8264 656.085 84.8124C656.085 85.7404 655.331 86.5524 654.345 86.5524H612.005V97.1664H653.475C654.925 97.1664 656.085 98.3264 656.085 99.7764C656.085 101.226 654.925 102.444 653.475 102.444H612.005V113H653.475C660.783 113 666.699 107.084 666.699 99.7764C666.699 96.9344 665.771 94.3244 664.263 92.1204C665.771 90.0904 666.699 87.5384 666.699 84.8124Z" stroke="white" stroke-opacity="0.2" stroke-width="2" mask="url(#path-1-outside-1_1011_2659)"/>
<path d="M714.375 72.4004H682.591L668.497 113H679.923L683.635 102.444H713.331L716.985 113H728.469L714.375 72.4004ZM687.289 91.8304L690.363 83.0144H706.545L709.619 91.8304H687.289Z" stroke="white" stroke-opacity="0.2" stroke-width="2" mask="url(#path-1-outside-1_1011_2659)"/>
<path d="M780.375 72.4004H748.591L734.497 113H794.469L780.375 72.4004ZM749.635 102.444L756.363 83.0144H772.545L779.331 102.444H749.635Z" stroke="white" stroke-opacity="0.2" stroke-width="2" mask="url(#path-1-outside-1_1011_2659)"/>
<path d="M845.375 72.4004H813.591L799.497 113H810.923L814.635 102.444H844.331L847.985 113H859.469L845.375 72.4004ZM818.289 91.8304L821.363 83.0144H837.545L840.619 91.8304H818.289Z" stroke="white" stroke-opacity="0.2" stroke-width="2" mask="url(#path-1-outside-1_1011_2659)"/>
<path d="M905.345 72.4004V91.8304H873.561V72.4004H863.005V102.444H905.345V113H915.959V72.4004H905.345Z" stroke="white" stroke-opacity="0.2" stroke-width="2" mask="url(#path-1-outside-1_1011_2659)"/>
<path d="M967.375 72.4004H935.591L921.497 113H932.923L936.635 102.444H966.331L969.985 113H981.469L967.375 72.4004ZM940.289 91.8304L943.363 83.0144H959.545L962.619 91.8304H940.289Z" stroke="white" stroke-opacity="0.2" stroke-width="2" mask="url(#path-1-outside-1_1011_2659)"/>
<path d="M1035.35 72.4004L1018.93 100.298L1002.58 72.4004H987.209V113H997.765V85.1604L1014.18 113H1023.75L1040.16 85.1604V113H1050.72V72.4004H1035.35Z" stroke="white" stroke-opacity="0.2" stroke-width="2" mask="url(#path-1-outside-1_1011_2659)"/>
<path d="M1084.02 72.4004L1073.4 102.444H1066.56V72.4004H1056V113H1080.89L1091.5 83.0144H1098.34V113H1108.96V72.4004H1084.02Z" stroke="white" stroke-opacity="0.2" stroke-width="2" mask="url(#path-1-outside-1_1011_2659)"/>
<path d="M150.825 83.0144H186.959V72.4004H150.825C139.631 72.4004 130.525 81.5644 130.525 92.7004C130.525 103.894 139.631 113 150.825 113H186.959V102.444H150.825C145.431 102.444 141.081 98.0944 141.081 92.7004C141.081 87.3644 145.431 83.0144 150.825 83.0144Z" stroke="white" stroke-opacity="0.2" stroke-width="2" mask="url(#path-1-outside-1_1011_2659)"/>
<path d="M268.699 84.8124C268.699 77.9684 263.131 72.4004 256.345 72.4004H214.005V113H255.475C262.783 113 268.699 107.084 268.699 99.7764C268.699 96.9344 267.771 94.3244 266.263 92.1204C267.771 90.0904 268.699 87.5384 268.699 84.8124ZM224.561 83.0144H256.345C257.331 83.0144 258.085 83.8264 258.085 84.8124C258.085 85.7404 257.331 86.5524 256.345 86.5524H224.561V83.0144ZM255.475 102.444H224.561V97.1664H255.475C256.925 97.1664 258.085 98.3264 258.085 99.7764C258.085 101.226 256.925 102.444 255.475 102.444Z" stroke="white" stroke-opacity="0.2" stroke-width="2" mask="url(#path-1-outside-1_1011_2659)"/>
<path d="M316.375 72.4004H284.591L270.497 113H281.923L285.635 102.444H315.331L318.985 113H330.469L316.375 72.4004ZM289.289 91.8304L292.363 83.0144H308.545L311.619 91.8304H289.289Z" stroke="white" stroke-opacity="0.2" stroke-width="2" mask="url(#path-1-outside-1_1011_2659)"/>
<path d="M389.163 72.4004V102.444H373.271V72.4004H362.657V102.444H346.765V72.4004H336.209V113H399.719V72.4004H389.163Z" stroke="white" stroke-opacity="0.2" stroke-width="2" mask="url(#path-1-outside-1_1011_2659)"/>
<path d="M433.019 72.4004L422.405 102.444H415.561V72.4004H405.005V113H429.887L440.501 83.0144H447.345V113H457.959V72.4004H433.019Z" stroke="white" stroke-opacity="0.2" stroke-width="2" mask="url(#path-1-outside-1_1011_2659)"/>
<path d="M511.349 72.4004L494.935 100.298L478.579 72.4004H463.209V113H473.765V85.1604L490.179 113H499.749L516.163 85.1604V113H526.719V72.4004H511.349Z" stroke="white" stroke-opacity="0.2" stroke-width="2" mask="url(#path-1-outside-1_1011_2659)"/>
<path d="M560.019 72.4004L549.405 102.444H542.561V72.4004H532.005V113H556.887L567.501 83.0144H574.345V113H584.959V72.4004H560.019Z" stroke="white" stroke-opacity="0.2" stroke-width="2" mask="url(#path-1-outside-1_1011_2659)"/>
<path d="M39.0332 8.40039V49.0004H49.5892V19.0144H81.3732V49.0004H91.9872V8.40039H39.0332Z" stroke="white" stroke-opacity="0.2" stroke-width="2" mask="url(#path-1-outside-1_1011_2659)"/>
<path d="M146.958 8.40039H116.972C105.778 8.40039 96.6723 17.5644 96.6723 28.7004C96.6723 39.8944 105.778 49.0004 116.972 49.0004H146.958C158.152 49.0004 167.258 39.8944 167.258 28.7004C167.258 17.5644 158.152 8.40039 146.958 8.40039ZM146.958 38.4444H116.972C111.578 38.4444 107.228 34.0944 107.228 28.7004C107.228 23.3644 111.578 19.0144 116.972 19.0144H146.958C152.294 19.0144 156.644 23.3644 156.644 28.7004C156.644 34.0944 152.294 38.4444 146.958 38.4444Z" stroke="white" stroke-opacity="0.2" stroke-width="2" mask="url(#path-1-outside-1_1011_2659)"/>
<path d="M213.375 8.40039H181.591L167.497 49.0004H227.469L213.375 8.40039ZM182.635 38.4444L189.363 19.0144H205.545L212.331 38.4444H182.635Z" stroke="white" stroke-opacity="0.2" stroke-width="2" mask="url(#path-1-outside-1_1011_2659)"/>
<path d="M274.475 8.40039H233.005V49.0004H243.561V38.4444H274.475C282.711 38.4444 289.439 31.7164 289.439 23.4224C289.439 15.1864 282.711 8.40039 274.475 8.40039ZM274.475 27.8304H243.561V19.0144H274.475C276.911 19.0144 278.883 20.9864 278.883 23.4224C278.883 25.8584 276.911 27.8304 274.475 27.8304Z" stroke="white" stroke-opacity="0.2" stroke-width="2" mask="url(#path-1-outside-1_1011_2659)"/>
<path d="M339.013 8.40039L334.083 22.5524H304.561V8.40039H294.005V33.1664H330.371L328.573 38.4444H294.005V49.0004H336.345L350.439 8.40039H339.013Z" stroke="white" stroke-opacity="0.2" stroke-width="2" mask="url(#path-1-outside-1_1011_2659)"/>
<path d="M426.258 8.40039H414.774L409.902 22.5524H398.012V8.40039H387.398V22.5524H372.028L367.098 8.40039H355.672L362.69 28.7004L355.672 49.0004H367.098L372.608 33.1664H387.398V49.0004H398.012V33.1664H409.264L414.774 49.0004H426.258L419.24 28.7004L426.258 8.40039Z" stroke="white" stroke-opacity="0.2" stroke-width="2" mask="url(#path-1-outside-1_1011_2659)"/>
<path d="M459.019 8.40039L448.405 38.4444H441.561V8.40039H431.005V49.0004H455.887L466.501 19.0144H473.345V49.0004H483.959V8.40039H459.019Z" stroke="white" stroke-opacity="0.2" stroke-width="2" mask="url(#path-1-outside-1_1011_2659)"/>
<path d="M537.349 8.40039L520.935 36.2984L504.579 8.40039H489.209V49.0004H499.765V21.1604L516.179 49.0004H525.749L542.163 21.1604V49.0004H552.719V8.40039H537.349Z" stroke="white" stroke-opacity="0.2" stroke-width="2" mask="url(#path-1-outside-1_1011_2659)"/>
<path d="M592.033 8.40039V19.0144H613.203V49.0004H623.759V19.0144H644.987V8.40039H592.033Z" stroke="white" stroke-opacity="0.2" stroke-width="2" mask="url(#path-1-outside-1_1011_2659)"/>
<path d="M704.699 20.8124C704.699 13.9684 699.131 8.40039 692.345 8.40039H650.005V49.0004H691.475C698.783 49.0004 704.699 43.0844 704.699 35.7764C704.699 32.9344 703.771 30.3244 702.263 28.1204C703.771 26.0904 704.699 23.5384 704.699 20.8124ZM660.561 19.0144H692.345C693.331 19.0144 694.085 19.8264 694.085 20.8124C694.085 21.7404 693.331 22.5524 692.345 22.5524H660.561V19.0144ZM691.475 38.4444H660.561V33.1664H691.475C692.925 33.1664 694.085 34.3264 694.085 35.7764C694.085 37.2264 692.925 38.4444 691.475 38.4444Z" stroke="white" stroke-opacity="0.2" stroke-width="2" mask="url(#path-1-outside-1_1011_2659)"/>
<path d="M759.958 8.40039H729.972C718.778 8.40039 709.672 17.5644 709.672 28.7004C709.672 39.8944 718.778 49.0004 729.972 49.0004H759.958C771.152 49.0004 780.258 39.8944 780.258 28.7004C780.258 17.5644 771.152 8.40039 759.958 8.40039ZM759.958 38.4444H729.972C724.578 38.4444 720.228 34.0944 720.228 28.7004C720.228 23.3644 724.578 19.0144 729.972 19.0144H759.958C765.294 19.0144 769.644 23.3644 769.644 28.7004C769.644 34.0944 765.294 38.4444 759.958 38.4444Z" stroke="white" stroke-opacity="0.2" stroke-width="2" mask="url(#path-1-outside-1_1011_2659)"/>
<path d="M826.475 8.40039H785.005V49.0004H795.561V38.4444H826.475C834.711 38.4444 841.439 31.7164 841.439 23.4224C841.439 15.1864 834.711 8.40039 826.475 8.40039ZM826.475 27.8304H795.561V19.0144H826.475C828.911 19.0144 830.883 20.9864 830.883 23.4224C830.883 25.8584 828.911 27.8304 826.475 27.8304Z" stroke="white" stroke-opacity="0.2" stroke-width="2" mask="url(#path-1-outside-1_1011_2659)"/>
<path d="M888.345 8.40039V27.8304H856.561V8.40039H846.005V38.4444H888.345V49.0004H898.959V8.40039H888.345Z" stroke="white" stroke-opacity="0.2" stroke-width="2" mask="url(#path-1-outside-1_1011_2659)"/>
<path d="M956.987 19.0144V8.40039H904.033V49.0004H956.987V38.4444H914.589V33.1664H956.987V22.5524H914.589V19.0144H956.987Z" stroke="white" stroke-opacity="0.2" stroke-width="2" mask="url(#path-1-outside-1_1011_2659)"/>
<path d="M981.825 19.0144H1017.96V8.40039H981.825C970.631 8.40039 961.525 17.5644 961.525 28.7004C961.525 39.8944 970.631 49.0004 981.825 49.0004H1017.96V38.4444H981.825C976.431 38.4444 972.081 34.0944 972.081 28.7004C972.081 23.3644 976.431 19.0144 981.825 19.0144Z" stroke="white" stroke-opacity="0.2" stroke-width="2" mask="url(#path-1-outside-1_1011_2659)"/>
<path d="M1022.03 8.40039V19.0144H1043.2V49.0004H1053.76V19.0144H1074.99V8.40039H1022.03Z" stroke="white" stroke-opacity="0.2" stroke-width="2" mask="url(#path-1-outside-1_1011_2659)"/>
<path d="M1133.7 20.8124C1133.7 13.9684 1128.13 8.40039 1121.34 8.40039H1079V49.0004H1120.47C1127.78 49.0004 1133.7 43.0844 1133.7 35.7764C1133.7 32.9344 1132.77 30.3244 1131.26 28.1204C1132.77 26.0904 1133.7 23.5384 1133.7 20.8124ZM1089.56 19.0144H1121.34C1122.33 19.0144 1123.08 19.8264 1123.08 20.8124C1123.08 21.7404 1122.33 22.5524 1121.34 22.5524H1089.56V19.0144ZM1120.47 38.4444H1089.56V33.1664H1120.47C1121.92 33.1664 1123.08 34.3264 1123.08 35.7764C1123.08 37.2264 1121.92 38.4444 1120.47 38.4444Z" stroke="white" stroke-opacity="0.2" stroke-width="2" mask="url(#path-1-outside-1_1011_2659)"/>
<path d="M1187.96 8.40039H1157.97C1146.78 8.40039 1137.67 17.5644 1137.67 28.7004C1137.67 39.8944 1146.78 49.0004 1157.97 49.0004H1187.96C1199.15 49.0004 1208.26 39.8944 1208.26 28.7004C1208.26 17.5644 1199.15 8.40039 1187.96 8.40039ZM1187.96 38.4444H1157.97C1152.58 38.4444 1148.23 34.0944 1148.23 28.7004C1148.23 23.3644 1152.58 19.0144 1157.97 19.0144H1187.96C1193.29 19.0144 1197.64 23.3644 1197.64 28.7004C1197.64 34.0944 1193.29 38.4444 1187.96 38.4444Z" stroke="white" stroke-opacity="0.2" stroke-width="2" mask="url(#path-1-outside-1_1011_2659)"/>
</svg>
