<svg width="1244" height="128" viewBox="0 0 1244 128" fill="none" xmlns="http://www.w3.org/2000/svg">
<mask id="path-1-outside-1_765_2050" maskUnits="userSpaceOnUse" x="23.0332" y="7.40039" width="1161" height="107" fill="black">
<rect fill="white" x="23.0332" y="7.40039" width="1161" height="107"/>
<path d="M645.078 84.8124C645.078 77.9684 639.51 72.4004 632.724 72.4004H590.384V83.0144H632.724C633.71 83.0144 634.464 83.8264 634.464 84.8124C634.464 85.7404 633.71 86.5524 632.724 86.5524H590.384V97.1664H631.854C633.304 97.1664 634.464 98.3264 634.464 99.7764C634.464 101.226 633.304 102.444 631.854 102.444H590.384V113H631.854C639.162 113 645.078 107.084 645.078 99.7764C645.078 96.9344 644.15 94.3244 642.642 92.1204C644.15 90.0904 645.078 87.5384 645.078 84.8124Z"/>
<path d="M692.754 72.4004H660.97L646.876 113H658.302L662.014 102.444H691.71L695.364 113H706.848L692.754 72.4004ZM665.668 91.8304L668.742 83.0144H684.924L687.998 91.8304H665.668Z"/>
<path d="M760.254 72.4004H728.47L714.376 113H774.348L760.254 72.4004ZM729.514 102.444L736.242 83.0144H752.424L759.21 102.444H729.514Z"/>
<path d="M825.254 72.4004H793.47L779.376 113H790.802L794.514 102.444H824.21L827.864 113H839.348L825.254 72.4004ZM798.168 91.8304L801.242 83.0144H817.424L820.498 91.8304H798.168Z"/>
<path d="M885.724 72.4004V91.8304H853.94V72.4004H843.384V102.444H885.724V113H896.338V72.4004H885.724Z"/>
<path d="M947.754 72.4004H915.97L901.876 113H913.302L917.014 102.444H946.71L950.364 113H961.848L947.754 72.4004ZM920.668 91.8304L923.742 83.0144H939.924L942.998 91.8304H920.668Z"/>
<path d="M1015.73 72.4004L999.314 100.298L982.958 72.4004H967.588V113H978.144V85.1604L994.558 113H1004.13L1020.54 85.1604V113H1031.1V72.4004H1015.73Z"/>
<path d="M1064.4 72.4004L1053.78 102.444H1046.94V72.4004H1036.38V113H1061.27L1071.88 83.0144H1078.72V113H1089.34V72.4004H1064.4Z"/>
<path d="M129.204 83.0144H165.338V72.4004H129.204C118.01 72.4004 108.904 81.5644 108.904 92.7004C108.904 103.894 118.01 113 129.204 113H165.338V102.444H129.204C123.81 102.444 119.46 98.0944 119.46 92.7004C119.46 87.3644 123.81 83.0144 129.204 83.0144Z"/>
<path d="M247.078 84.8124C247.078 77.9684 241.51 72.4004 234.724 72.4004H192.384V113H233.854C241.162 113 247.078 107.084 247.078 99.7764C247.078 96.9344 246.15 94.3244 244.642 92.1204C246.15 90.0904 247.078 87.5384 247.078 84.8124ZM202.94 83.0144H234.724C235.71 83.0144 236.464 83.8264 236.464 84.8124C236.464 85.7404 235.71 86.5524 234.724 86.5524H202.94V83.0144ZM233.854 102.444H202.94V97.1664H233.854C235.304 97.1664 236.464 98.3264 236.464 99.7764C236.464 101.226 235.304 102.444 233.854 102.444Z"/>
<path d="M294.754 72.4004H262.97L248.876 113H260.302L264.014 102.444H293.71L297.364 113H308.848L294.754 72.4004ZM267.668 91.8304L270.742 83.0144H286.924L289.998 91.8304H267.668Z"/>
<path d="M367.542 72.4004V102.444H351.65V72.4004H341.036V102.444H325.144V72.4004H314.588V113H378.098V72.4004H367.542Z"/>
<path d="M411.398 72.4004L400.784 102.444H393.94V72.4004H383.384V113H408.266L418.88 83.0144H425.724V113H436.338V72.4004H411.398Z"/>
<path d="M489.728 72.4004L473.314 100.298L456.958 72.4004H441.588V113H452.144V85.1604L468.558 113H478.128L494.542 85.1604V113H505.098V72.4004H489.728Z"/>
<path d="M538.398 72.4004L527.784 102.444H520.94V72.4004H510.384V113H535.266L545.88 83.0144H552.724V113H563.338V72.4004H538.398Z"/>
<path d="M24.0332 8.40039V49.0004H34.5892V19.0144H66.3732V49.0004H76.9872V8.40039H24.0332Z"/>
<path d="M131.958 8.40039H101.972C90.7783 8.40039 81.6723 17.5644 81.6723 28.7004C81.6723 39.8944 90.7783 49.0004 101.972 49.0004H131.958C143.152 49.0004 152.258 39.8944 152.258 28.7004C152.258 17.5644 143.152 8.40039 131.958 8.40039ZM131.958 38.4444H101.972C96.5783 38.4444 92.2283 34.0944 92.2283 28.7004C92.2283 23.3644 96.5783 19.0144 101.972 19.0144H131.958C137.294 19.0144 141.644 23.3644 141.644 28.7004C141.644 34.0944 137.294 38.4444 131.958 38.4444Z"/>
<path d="M198.375 8.40039H166.591L152.497 49.0004H212.469L198.375 8.40039ZM167.635 38.4444L174.363 19.0144H190.545L197.331 38.4444H167.635Z"/>
<path d="M259.475 8.40039H218.005V49.0004H228.561V38.4444H259.475C267.711 38.4444 274.439 31.7164 274.439 23.4224C274.439 15.1864 267.711 8.40039 259.475 8.40039ZM259.475 27.8304H228.561V19.0144H259.475C261.911 19.0144 263.883 20.9864 263.883 23.4224C263.883 25.8584 261.911 27.8304 259.475 27.8304Z"/>
<path d="M324.013 8.40039L319.083 22.5524H289.561V8.40039H279.005V33.1664H315.371L313.573 38.4444H279.005V49.0004H321.345L335.439 8.40039H324.013Z"/>
<path d="M411.258 8.40039H399.774L394.902 22.5524H383.012V8.40039H372.398V22.5524H357.028L352.098 8.40039H340.672L347.69 28.7004L340.672 49.0004H352.098L357.608 33.1664H372.398V49.0004H383.012V33.1664H394.264L399.774 49.0004H411.258L404.24 28.7004L411.258 8.40039Z"/>
<path d="M444.019 8.40039L433.405 38.4444H426.561V8.40039H416.005V49.0004H440.887L451.501 19.0144H458.345V49.0004H468.959V8.40039H444.019Z"/>
<path d="M522.584 8.40039L506.17 36.2984L489.814 8.40039H474.444V49.0004H485V21.1604L501.414 49.0004H510.984L527.398 21.1604V49.0004H537.954V8.40039H522.584Z"/>
<path d="M565.793 8.40039V19.0144H586.963V49.0004H597.519V19.0144H618.747V8.40039H565.793Z"/>
<path d="M678.458 20.8124C678.458 13.9684 672.89 8.40039 666.104 8.40039H623.764V49.0004H665.234C672.542 49.0004 678.458 43.0844 678.458 35.7764C678.458 32.9344 677.53 30.3244 676.022 28.1204C677.53 26.0904 678.458 23.5384 678.458 20.8124ZM634.32 19.0144H666.104C667.09 19.0144 667.844 19.8264 667.844 20.8124C667.844 21.7404 667.09 22.5524 666.104 22.5524H634.32V19.0144ZM665.234 38.4444H634.32V33.1664H665.234C666.684 33.1664 667.844 34.3264 667.844 35.7764C667.844 37.2264 666.684 38.4444 665.234 38.4444Z"/>
<path d="M733.718 8.40039H703.732C692.538 8.40039 683.432 17.5644 683.432 28.7004C683.432 39.8944 692.538 49.0004 703.732 49.0004H733.718C744.912 49.0004 754.018 39.8944 754.018 28.7004C754.018 17.5644 744.912 8.40039 733.718 8.40039ZM733.718 38.4444H703.732C698.338 38.4444 693.988 34.0944 693.988 28.7004C693.988 23.3644 698.338 19.0144 703.732 19.0144H733.718C739.054 19.0144 743.404 23.3644 743.404 28.7004C743.404 34.0944 739.054 38.4444 733.718 38.4444Z"/>
<path d="M800.234 8.40039H758.764V49.0004H769.32V38.4444H800.234C808.47 38.4444 815.198 31.7164 815.198 23.4224C815.198 15.1864 808.47 8.40039 800.234 8.40039ZM800.234 27.8304H769.32V19.0144H800.234C802.67 19.0144 804.642 20.9864 804.642 23.4224C804.642 25.8584 802.67 27.8304 800.234 27.8304Z"/>
<path d="M862.16 8.40039V27.8304H830.376V8.40039H819.82V38.4444H862.16V49.0004H872.774V8.40039H862.16Z"/>
<path d="M931.302 19.0144V8.40039H878.348V49.0004H931.302V38.4444H888.904V33.1664H931.302V22.5524H888.904V19.0144H931.302Z"/>
<path d="M956.14 19.0144H992.274V8.40039H956.14C944.946 8.40039 935.84 17.5644 935.84 28.7004C935.84 39.8944 944.946 49.0004 956.14 49.0004H992.274V38.4444H956.14C950.746 38.4444 946.396 34.0944 946.396 28.7004C946.396 23.3644 950.746 19.0144 956.14 19.0144Z"/>
<path d="M996.348 8.40039V19.0144H1017.52V49.0004H1028.07V19.0144H1049.3V8.40039H996.348Z"/>
<path d="M1108.01 20.8124C1108.01 13.9684 1102.45 8.40039 1095.66 8.40039H1053.32V49.0004H1094.79C1102.1 49.0004 1108.01 43.0844 1108.01 35.7764C1108.01 32.9344 1107.09 30.3244 1105.58 28.1204C1107.09 26.0904 1108.01 23.5384 1108.01 20.8124ZM1063.88 19.0144H1095.66C1096.65 19.0144 1097.4 19.8264 1097.4 20.8124C1097.4 21.7404 1096.65 22.5524 1095.66 22.5524H1063.88V19.0144ZM1094.79 38.4444H1063.88V33.1664H1094.79C1096.24 33.1664 1097.4 34.3264 1097.4 35.7764C1097.4 37.2264 1096.24 38.4444 1094.79 38.4444Z"/>
<path d="M1162.27 8.40039H1132.29C1121.09 8.40039 1111.99 17.5644 1111.99 28.7004C1111.99 39.8944 1121.09 49.0004 1132.29 49.0004H1162.27C1173.47 49.0004 1182.57 39.8944 1182.57 28.7004C1182.57 17.5644 1173.47 8.40039 1162.27 8.40039ZM1162.27 38.4444H1132.29C1126.89 38.4444 1122.54 34.0944 1122.54 28.7004C1122.54 23.3644 1126.89 19.0144 1132.29 19.0144H1162.27C1167.61 19.0144 1171.96 23.3644 1171.96 28.7004C1171.96 34.0944 1167.61 38.4444 1162.27 38.4444Z"/>
</mask>
<path d="M645.078 84.8124C645.078 77.9684 639.51 72.4004 632.724 72.4004H590.384V83.0144H632.724C633.71 83.0144 634.464 83.8264 634.464 84.8124C634.464 85.7404 633.71 86.5524 632.724 86.5524H590.384V97.1664H631.854C633.304 97.1664 634.464 98.3264 634.464 99.7764C634.464 101.226 633.304 102.444 631.854 102.444H590.384V113H631.854C639.162 113 645.078 107.084 645.078 99.7764C645.078 96.9344 644.15 94.3244 642.642 92.1204C644.15 90.0904 645.078 87.5384 645.078 84.8124Z" stroke="white" stroke-opacity="0.2" stroke-width="2" mask="url(#path-1-outside-1_765_2050)"/>
<path d="M692.754 72.4004H660.97L646.876 113H658.302L662.014 102.444H691.71L695.364 113H706.848L692.754 72.4004ZM665.668 91.8304L668.742 83.0144H684.924L687.998 91.8304H665.668Z" stroke="white" stroke-opacity="0.2" stroke-width="2" mask="url(#path-1-outside-1_765_2050)"/>
<path d="M760.254 72.4004H728.47L714.376 113H774.348L760.254 72.4004ZM729.514 102.444L736.242 83.0144H752.424L759.21 102.444H729.514Z" stroke="white" stroke-opacity="0.2" stroke-width="2" mask="url(#path-1-outside-1_765_2050)"/>
<path d="M825.254 72.4004H793.47L779.376 113H790.802L794.514 102.444H824.21L827.864 113H839.348L825.254 72.4004ZM798.168 91.8304L801.242 83.0144H817.424L820.498 91.8304H798.168Z" stroke="white" stroke-opacity="0.2" stroke-width="2" mask="url(#path-1-outside-1_765_2050)"/>
<path d="M885.724 72.4004V91.8304H853.94V72.4004H843.384V102.444H885.724V113H896.338V72.4004H885.724Z" stroke="white" stroke-opacity="0.2" stroke-width="2" mask="url(#path-1-outside-1_765_2050)"/>
<path d="M947.754 72.4004H915.97L901.876 113H913.302L917.014 102.444H946.71L950.364 113H961.848L947.754 72.4004ZM920.668 91.8304L923.742 83.0144H939.924L942.998 91.8304H920.668Z" stroke="white" stroke-opacity="0.2" stroke-width="2" mask="url(#path-1-outside-1_765_2050)"/>
<path d="M1015.73 72.4004L999.314 100.298L982.958 72.4004H967.588V113H978.144V85.1604L994.558 113H1004.13L1020.54 85.1604V113H1031.1V72.4004H1015.73Z" stroke="white" stroke-opacity="0.2" stroke-width="2" mask="url(#path-1-outside-1_765_2050)"/>
<path d="M1064.4 72.4004L1053.78 102.444H1046.94V72.4004H1036.38V113H1061.27L1071.88 83.0144H1078.72V113H1089.34V72.4004H1064.4Z" stroke="white" stroke-opacity="0.2" stroke-width="2" mask="url(#path-1-outside-1_765_2050)"/>
<path d="M129.204 83.0144H165.338V72.4004H129.204C118.01 72.4004 108.904 81.5644 108.904 92.7004C108.904 103.894 118.01 113 129.204 113H165.338V102.444H129.204C123.81 102.444 119.46 98.0944 119.46 92.7004C119.46 87.3644 123.81 83.0144 129.204 83.0144Z" stroke="white" stroke-opacity="0.2" stroke-width="2" mask="url(#path-1-outside-1_765_2050)"/>
<path d="M247.078 84.8124C247.078 77.9684 241.51 72.4004 234.724 72.4004H192.384V113H233.854C241.162 113 247.078 107.084 247.078 99.7764C247.078 96.9344 246.15 94.3244 244.642 92.1204C246.15 90.0904 247.078 87.5384 247.078 84.8124ZM202.94 83.0144H234.724C235.71 83.0144 236.464 83.8264 236.464 84.8124C236.464 85.7404 235.71 86.5524 234.724 86.5524H202.94V83.0144ZM233.854 102.444H202.94V97.1664H233.854C235.304 97.1664 236.464 98.3264 236.464 99.7764C236.464 101.226 235.304 102.444 233.854 102.444Z" stroke="white" stroke-opacity="0.2" stroke-width="2" mask="url(#path-1-outside-1_765_2050)"/>
<path d="M294.754 72.4004H262.97L248.876 113H260.302L264.014 102.444H293.71L297.364 113H308.848L294.754 72.4004ZM267.668 91.8304L270.742 83.0144H286.924L289.998 91.8304H267.668Z" stroke="white" stroke-opacity="0.2" stroke-width="2" mask="url(#path-1-outside-1_765_2050)"/>
<path d="M367.542 72.4004V102.444H351.65V72.4004H341.036V102.444H325.144V72.4004H314.588V113H378.098V72.4004H367.542Z" stroke="white" stroke-opacity="0.2" stroke-width="2" mask="url(#path-1-outside-1_765_2050)"/>
<path d="M411.398 72.4004L400.784 102.444H393.94V72.4004H383.384V113H408.266L418.88 83.0144H425.724V113H436.338V72.4004H411.398Z" stroke="white" stroke-opacity="0.2" stroke-width="2" mask="url(#path-1-outside-1_765_2050)"/>
<path d="M489.728 72.4004L473.314 100.298L456.958 72.4004H441.588V113H452.144V85.1604L468.558 113H478.128L494.542 85.1604V113H505.098V72.4004H489.728Z" stroke="white" stroke-opacity="0.2" stroke-width="2" mask="url(#path-1-outside-1_765_2050)"/>
<path d="M538.398 72.4004L527.784 102.444H520.94V72.4004H510.384V113H535.266L545.88 83.0144H552.724V113H563.338V72.4004H538.398Z" stroke="white" stroke-opacity="0.2" stroke-width="2" mask="url(#path-1-outside-1_765_2050)"/>
<path d="M24.0332 8.40039V49.0004H34.5892V19.0144H66.3732V49.0004H76.9872V8.40039H24.0332Z" stroke="white" stroke-opacity="0.2" stroke-width="2" mask="url(#path-1-outside-1_765_2050)"/>
<path d="M131.958 8.40039H101.972C90.7783 8.40039 81.6723 17.5644 81.6723 28.7004C81.6723 39.8944 90.7783 49.0004 101.972 49.0004H131.958C143.152 49.0004 152.258 39.8944 152.258 28.7004C152.258 17.5644 143.152 8.40039 131.958 8.40039ZM131.958 38.4444H101.972C96.5783 38.4444 92.2283 34.0944 92.2283 28.7004C92.2283 23.3644 96.5783 19.0144 101.972 19.0144H131.958C137.294 19.0144 141.644 23.3644 141.644 28.7004C141.644 34.0944 137.294 38.4444 131.958 38.4444Z" stroke="white" stroke-opacity="0.2" stroke-width="2" mask="url(#path-1-outside-1_765_2050)"/>
<path d="M198.375 8.40039H166.591L152.497 49.0004H212.469L198.375 8.40039ZM167.635 38.4444L174.363 19.0144H190.545L197.331 38.4444H167.635Z" stroke="white" stroke-opacity="0.2" stroke-width="2" mask="url(#path-1-outside-1_765_2050)"/>
<path d="M259.475 8.40039H218.005V49.0004H228.561V38.4444H259.475C267.711 38.4444 274.439 31.7164 274.439 23.4224C274.439 15.1864 267.711 8.40039 259.475 8.40039ZM259.475 27.8304H228.561V19.0144H259.475C261.911 19.0144 263.883 20.9864 263.883 23.4224C263.883 25.8584 261.911 27.8304 259.475 27.8304Z" stroke="white" stroke-opacity="0.2" stroke-width="2" mask="url(#path-1-outside-1_765_2050)"/>
<path d="M324.013 8.40039L319.083 22.5524H289.561V8.40039H279.005V33.1664H315.371L313.573 38.4444H279.005V49.0004H321.345L335.439 8.40039H324.013Z" stroke="white" stroke-opacity="0.2" stroke-width="2" mask="url(#path-1-outside-1_765_2050)"/>
<path d="M411.258 8.40039H399.774L394.902 22.5524H383.012V8.40039H372.398V22.5524H357.028L352.098 8.40039H340.672L347.69 28.7004L340.672 49.0004H352.098L357.608 33.1664H372.398V49.0004H383.012V33.1664H394.264L399.774 49.0004H411.258L404.24 28.7004L411.258 8.40039Z" stroke="white" stroke-opacity="0.2" stroke-width="2" mask="url(#path-1-outside-1_765_2050)"/>
<path d="M444.019 8.40039L433.405 38.4444H426.561V8.40039H416.005V49.0004H440.887L451.501 19.0144H458.345V49.0004H468.959V8.40039H444.019Z" stroke="white" stroke-opacity="0.2" stroke-width="2" mask="url(#path-1-outside-1_765_2050)"/>
<path d="M522.584 8.40039L506.17 36.2984L489.814 8.40039H474.444V49.0004H485V21.1604L501.414 49.0004H510.984L527.398 21.1604V49.0004H537.954V8.40039H522.584Z" stroke="white" stroke-opacity="0.2" stroke-width="2" mask="url(#path-1-outside-1_765_2050)"/>
<path d="M565.793 8.40039V19.0144H586.963V49.0004H597.519V19.0144H618.747V8.40039H565.793Z" stroke="white" stroke-opacity="0.2" stroke-width="2" mask="url(#path-1-outside-1_765_2050)"/>
<path d="M678.458 20.8124C678.458 13.9684 672.89 8.40039 666.104 8.40039H623.764V49.0004H665.234C672.542 49.0004 678.458 43.0844 678.458 35.7764C678.458 32.9344 677.53 30.3244 676.022 28.1204C677.53 26.0904 678.458 23.5384 678.458 20.8124ZM634.32 19.0144H666.104C667.09 19.0144 667.844 19.8264 667.844 20.8124C667.844 21.7404 667.09 22.5524 666.104 22.5524H634.32V19.0144ZM665.234 38.4444H634.32V33.1664H665.234C666.684 33.1664 667.844 34.3264 667.844 35.7764C667.844 37.2264 666.684 38.4444 665.234 38.4444Z" stroke="white" stroke-opacity="0.2" stroke-width="2" mask="url(#path-1-outside-1_765_2050)"/>
<path d="M733.718 8.40039H703.732C692.538 8.40039 683.432 17.5644 683.432 28.7004C683.432 39.8944 692.538 49.0004 703.732 49.0004H733.718C744.912 49.0004 754.018 39.8944 754.018 28.7004C754.018 17.5644 744.912 8.40039 733.718 8.40039ZM733.718 38.4444H703.732C698.338 38.4444 693.988 34.0944 693.988 28.7004C693.988 23.3644 698.338 19.0144 703.732 19.0144H733.718C739.054 19.0144 743.404 23.3644 743.404 28.7004C743.404 34.0944 739.054 38.4444 733.718 38.4444Z" stroke="white" stroke-opacity="0.2" stroke-width="2" mask="url(#path-1-outside-1_765_2050)"/>
<path d="M800.234 8.40039H758.764V49.0004H769.32V38.4444H800.234C808.47 38.4444 815.198 31.7164 815.198 23.4224C815.198 15.1864 808.47 8.40039 800.234 8.40039ZM800.234 27.8304H769.32V19.0144H800.234C802.67 19.0144 804.642 20.9864 804.642 23.4224C804.642 25.8584 802.67 27.8304 800.234 27.8304Z" stroke="white" stroke-opacity="0.2" stroke-width="2" mask="url(#path-1-outside-1_765_2050)"/>
<path d="M862.16 8.40039V27.8304H830.376V8.40039H819.82V38.4444H862.16V49.0004H872.774V8.40039H862.16Z" stroke="white" stroke-opacity="0.2" stroke-width="2" mask="url(#path-1-outside-1_765_2050)"/>
<path d="M931.302 19.0144V8.40039H878.348V49.0004H931.302V38.4444H888.904V33.1664H931.302V22.5524H888.904V19.0144H931.302Z" stroke="white" stroke-opacity="0.2" stroke-width="2" mask="url(#path-1-outside-1_765_2050)"/>
<path d="M956.14 19.0144H992.274V8.40039H956.14C944.946 8.40039 935.84 17.5644 935.84 28.7004C935.84 39.8944 944.946 49.0004 956.14 49.0004H992.274V38.4444H956.14C950.746 38.4444 946.396 34.0944 946.396 28.7004C946.396 23.3644 950.746 19.0144 956.14 19.0144Z" stroke="white" stroke-opacity="0.2" stroke-width="2" mask="url(#path-1-outside-1_765_2050)"/>
<path d="M996.348 8.40039V19.0144H1017.52V49.0004H1028.07V19.0144H1049.3V8.40039H996.348Z" stroke="white" stroke-opacity="0.2" stroke-width="2" mask="url(#path-1-outside-1_765_2050)"/>
<path d="M1108.01 20.8124C1108.01 13.9684 1102.45 8.40039 1095.66 8.40039H1053.32V49.0004H1094.79C1102.1 49.0004 1108.01 43.0844 1108.01 35.7764C1108.01 32.9344 1107.09 30.3244 1105.58 28.1204C1107.09 26.0904 1108.01 23.5384 1108.01 20.8124ZM1063.88 19.0144H1095.66C1096.65 19.0144 1097.4 19.8264 1097.4 20.8124C1097.4 21.7404 1096.65 22.5524 1095.66 22.5524H1063.88V19.0144ZM1094.79 38.4444H1063.88V33.1664H1094.79C1096.24 33.1664 1097.4 34.3264 1097.4 35.7764C1097.4 37.2264 1096.24 38.4444 1094.79 38.4444Z" stroke="white" stroke-opacity="0.2" stroke-width="2" mask="url(#path-1-outside-1_765_2050)"/>
<path d="M1162.27 8.40039H1132.29C1121.09 8.40039 1111.99 17.5644 1111.99 28.7004C1111.99 39.8944 1121.09 49.0004 1132.29 49.0004H1162.27C1173.47 49.0004 1182.57 39.8944 1182.57 28.7004C1182.57 17.5644 1173.47 8.40039 1162.27 8.40039ZM1162.27 38.4444H1132.29C1126.89 38.4444 1122.54 34.0944 1122.54 28.7004C1122.54 23.3644 1126.89 19.0144 1132.29 19.0144H1162.27C1167.61 19.0144 1171.96 23.3644 1171.96 28.7004C1171.96 34.0944 1167.61 38.4444 1162.27 38.4444Z" stroke="white" stroke-opacity="0.2" stroke-width="2" mask="url(#path-1-outside-1_765_2050)"/>
</svg>
