<svg width="396" height="419" viewBox="0 0 396 419" fill="none" xmlns="http://www.w3.org/2000/svg">
<path d="M124.47 0H16C7.16344 0 0 7.16344 0 16V387.373C0 391.616 1.68571 395.686 4.68629 398.686L19.3308 413.331C22.3213 416.321 26.3741 418.006 30.6032 418.017L379.959 418.921C388.811 418.944 396 411.774 396 402.921V54.6274C396 50.384 394.314 46.3143 391.314 43.3137L376.686 28.6863C373.686 25.6857 369.616 24 365.373 24H161.725C157.482 24 153.412 22.3143 150.411 19.3137L135.784 4.68629C132.783 1.68571 128.714 0 124.47 0Z" fill="white" fill-opacity="0.03"/>
</svg>
